<svg xmlns="http://www.w3.org/2000/svg" viewBox="0 0 2880 983.8">
  <style>
    .st1{fill:#e6e6e6}
  </style>
  <path d="M-1 0h2882v1018H-1z" style="fill:#f3f3f3"/>
  <path class="st1" d="m2326 994-5-3-19-8-3-3-7-12-5-13-10-12-1-3v-5l5-21 6-18 23-53 3-10 2-9v-13l-1-6-3-7-4-6-4-5-4-3-6-2-9-2-11-1-34 1-22-1h-21l-3-2-3-3-15-20-5-4h-5l-2 1-3 3-12 19-6 12-6 6-13 9-17 11-24 16-41 33-6 4-4 2-1-1-2-1-6-11-21-30-15-15-7-5-7-4-8-1-26-2-20-3-13-1-8 1-8 1-6 2-7 4-8 6-5 5-4 5-4 8-3 3-10 6-6 3-16 3h-10l-25-2-40-2-20-2-24 1-13 1-11 2-13 3-10 4-25 14-16 5-4 1h-3l-3-2-11-12-10-15-10-11-7-12-18-20-9-11v-1l2-1 9-5 11-8 4-5 1-7v-8l-7-37-7-28-2-6-3-4-4-4-4-2-4-1-6-1-27 5-20 5h-5l-5-3-12-13-10-8-10-5-25-10-30-19-6-6-4-8-3-11-6-28-3-10-5-8-7-8-8-6-9-4-12-2-21-1-48 2-23 3-7 2-5 4-3 3-3 5-2 13 2 13 6 23 1 3-1 1-1 2-6 2-55 21-17 7-10 6-6 6-5 6-5 9-4 8-5 18-5 12-1 11 1 8 1 6 13 19v3l-1 1-3 1-40 12-23 7-7 4-12 8-5 5-3 4 1 4 3 5 6 4 15 9 12 10 9 5 14 6 33 10 25 13 55 22 20 9 1 2-1 1-6 5-9 5-37 14-44 14-12 6-7 5-6 7-3 6-5 12-14 17-4 3-14 5-17 10-7 2-29 5-6-1-28-3h-26l-10 1-9 4 1 2v3l1 3h3l-1-3v-3l2-2h-1l5-1 9-1h26l28 3h6l29-4 8-2 17-11 14-5 5-3 14-18 6-12 3-6 5-6 6-4 12-6 44-15 37-14 9-4 8-7 1-3-2-2-21-10-55-22-25-13-33-10-14-6-8-5-13-10-14-9-6-4-3-3v-3l2-4 5-4 11-8 7-3 23-8 40-11 4-2 2-2v-4l-13-20-2-6-1-6 2-11 5-12 5-18 4-8 4-8 5-7 6-5 9-5 17-8 55-20 6-3 2-2 1-2v-4l-7-23-1-13 2-12 2-4 3-3 5-3 5-2 23-4 48-2 20 1 13 3 8 3 7 6 7 7 4 8 3 9 6 28 3 11 5 10 7 5 30 20 25 10 10 5 9 8 12 13 6 4h6l20-5 27-5h6l3 1 3 2 4 3 2 4 3 6 6 27 7 37v7l-1 7-3 5-10 7-10 4-2 2-1 4 10 12 18 20 7 11 10 11 10 16 11 12 4 3h5l4-1 16-6 25-13 10-4 12-4 11-2 13-1h24l20 2 39 2 26 2 10-1 17-3 7-2 9-7 4-3 5-9 3-5 5-4 8-5 6-4 6-2 7-2h8l12 1 20 3 27 1 7 2 6 3 7 4 14 15 21 30 7 11 3 3h3l4-1 7-5 40-33 25-16 17-11 13-9 6-7 7-12 11-19 2-2 2-1 3 1 4 3 15 20 3 3 4 3h5l17-1 22 2 34-1h11l8 2 6 2 3 2 4 5 4 6 2 7 1 5v12l-2 9-3 10-22 53-7 18-4 21-1 6 2 5 9 11 5 13 7 12 4 4 19 8 5 3 11 10h5l-3-1zM2770 979l8-11 6-13 6-12 2-9-1-2-2-2-6-1-11 2-8 3-23 12-23 13-39 27-13 7-32 12h-3l-5-3-4-2h-4l-7 1-12 4-3 1h7l9-3 6-1 3 1 4 1 4 2h9l29-11 13-7 39-27 24-13 23-12 7-3 10-2 4 1 1 1 1 1-2 9-5 11-6 12-8 12-12 14-14 14h4l12-12z"/>
  <path class="st1" d="m1930 959-4-7-4-4-7-3-11-1-38 5h-7l-7-2-27-16-12-6-12-4-10-1h-10l-8 2-6 3-8 6-6 6-5 9-3 9-2 9-1 1-2 1-4 1-22-2h-21l-21 1-12 2-8 2-6 3-18 14-6 4-11 5-7 2h-15l-33-5-5-1-14-9-28-15-5-4-4-4-3-8-7-20-5-14-5-11-19-34-21-50-8-17-6-11-11-15-7-15-5-8-18-16-21-14-16-8-16-6-12-4-13-2-19-1h-11l-8 3-2 2-1 4 1 7 5 8 29 33 24 29 12 19v3l-1 1-8 4-13 6-5 3-2 2v4l2 6 16 19 20 21 6 7 13 9 4 4 13 22 19 23 1 4 7 24 3 6 5 6 7 5 6 1 32-6h8l5 4 17 17h3l-18-18-5-5h-1l-4-1-6 1-31 5-5-1-6-3-5-6-2-6-7-23-2-5-18-24-14-21-4-5-13-9-6-6-20-22-16-18-1-5v-3l1-1 4-3 13-5 9-5 2-2v-5l-13-20-24-28-29-34-4-7-1-6v-2l1-2 7-2 11-1 18 1 13 3 13 4 15 6 15 7 21 14 18 16 5 7 7 15 11 15 5 11 8 17 21 50 19 34 5 11 5 13 7 21 4 8 4 5 6 4 28 15 13 9 6 2 34 5 15-1 8-2 11-5 6-4 18-14 6-3 8-2 11-2 21-1h21l22 2h4l4-2 2-2 2-9 2-9 5-8 6-6 7-6 6-3 7-1 10-1 9 1 12 4 11 6 28 16 7 2 8 1 38-5 10 1 6 2 4 3 3 7 6 16 9 30h3l-9-31zM2187 945l1-13-1-8-2-6-4-3-7-3-13-4-14-6-10-1-8 3-16 12-22 19-21 13-25 17-9 9-11 10-16 14-3 3-2 4v1h3l1-4 3-3 16-13 11-11 9-8 24-17 21-13 23-20 15-11 8-2h8l14 6 13 4 7 3 3 3 2 5v7l-1 12-6 37-5 25h2l6-24zM893 210l-8-8-61-51-35-25-8-3h-3l-3 1-6 3-11 9-12 9-12 13-3 5-2 8v12l1 8 6 15 10 20 20 31 11 15 10 9 10 6 11 3 12 1 12-2 15-5 15-10 15-12 9-10 7-12 4-12v-10l-4-8zm1 18-4 11-6 11-9 10-15 12-14 9-14 5-12 2h-11l-10-3-10-6-9-8-12-15-20-32-10-18-5-16-1-7v-12l2-7 2-5 12-12 12-9 11-9 5-3h5l7 2 34 25 61 51 7 8 4 7v9z"/>
  <path class="st1" d="m2851 942 11-26 3-7 1-11v-4l-3-5-9-10-11-8-14-6-12-4-19-1h-15l-16 4-15 6-9 5-13 10-22 15-4-1-10-4-9-3-8-1-8 1-11 5-18 12-36 33-4 3-8 4-12 1-9 2-2-1-1-1-11-36-3-6-5-5-9-5-9-2h-12l-13 2-1 1-7 4-3 6-9 32-13 29-4 13-1 1h-2l-14-4-9-6-13-5-11-8-1-3-1-7-2-5-3-3-9-6-3-3v-7l-2-2-2-4-1-7 6-16 1-2 3-3 10-3 11-6 26-5 5-2 5-3 3-4h1v-8l-1-4-3-4-4-4-5-3-23-6-18-2-18-1-9-2-4-2-1-2-1-3v-36l-3-10-4-10-4-5-4-3-6-3-13-5-10-9-7-4-11-4h-12l-12 1-14 5-6 1h-24l-7-1-18-4-6-2-2-3-4-16-17-44-21-46-5-7-5-7-5-4-6-2h-4l-4 2-6 5-5 11-5 16-13 74v16l4 19-1 3-1 4-3 5-13 9-16 15-5 2-22 10h-5l-3-2-12-16-8-15-5-8-7-7-6-4-8-3-10-2-41-2-19-6-14-1h-9l-10 2-8 3-9 4-16 10-19 15-40 28-6 4-5 2-8 1-30-2-69-6-33-1-3-2-4-6-9-8-16-30-12-28-16-46-15-36-7-27-3-7-4-4-4-3-5-1-22-4-13-2-16 1-6 1-6 3-4 3-8 10-4 2h-3l-11-9-9-5-5-2-11-2-3-1-17-12-4-6-8-21-8-17-12-14-9-7-6-3-7-2-30-6-46-11-21-4-13-1-21 1-74 5-11 2-11 2-6 3-4 4-3 5-1 6 1 18 2 8 5 14 8 16 1 3-1 2-20 10-14 9-11 9-15 14-18 19-9 10-7 11-11 20-4 4-3 1-11-1-8 1-11 4-7 5-6 7-5 9-2 7-2 11-2 4-4 3-36 26-7 6-3 5v5l2 2 8 7 22 12 37 16 3 2 6 7 6 5 34 21 2 3 1 13 5 9v2l-7 11-4 12-3 2-18 5-27 9-20 10-8 2-45 5-17 3-18 4-5 2-5 4-6 7-10 17-5 12-7 9-9 10-4 6h3l3-4 8-10 1-1 1-1 6-8 6-12 9-16 6-7 4-3 5-3 18-4 17-3 45-5 7-1 21-11 26-9 19-4 5-4 4-12 7-12-1-3-4-9-2-13-2-3-34-22-6-4-6-8-4-2-36-16-22-12-8-7-1-1v-3l3-5 6-5 36-26 4-4 3-5 2-10 2-7 5-8 5-7 6-5 11-4h7l11 1 5-1 4-6 12-20 7-10 8-11 18-19 15-13 11-9 14-9 20-10 1-3v-4l-8-17-5-14-2-7-1-18 1-5 2-5 3-3 6-2 11-3 10-1 75-6h33l20 4 47 12 29 5 7 2 5 3 9 7 11 13 9 17 7 21 5 7 17 12 4 1 11 2 5 2 8 5 11 9h5l5-2 9-10 4-3 5-3 5-1h16l12 1 22 4 5 2 3 1 3 4 4 7 6 27 16 35 15 47 13 28 16 31 8 8 5 6 4 2 34 1 68 6 31 2 9-1 5-2 7-4 40-28 19-15 16-10 8-4 8-3 9-1 9-1 13 2 19 6 42 2 9 1 8 3 5 4 6 6 5 8 8 16 13 15 4 3 2 1 5-1 22-9 6-3 15-15 14-10 4-5 1-4v-4l-3-20v-14l13-74 4-16 5-10 5-5 4-1h3l5 1 4 4 5 6 4 7 21 46 18 44 4 16 2 4 7 3 19 3 7 1h25l6-1 14-4 11-2 11 1 11 3 6 4 10 9 14 5 5 3 4 3 3 4 4 9 3 10v37l1 3 2 3 5 2 9 2 19 1 18 3 22 6 4 2 4 4 3 3 1 4-1 6-2 3-5 3-5 1-26 6-12 5-10 4-3 3-2 3-5 16v1l1 7 1 5 2 2v7l4 4 9 5 2 4 3 3 1 8 1 3 12 9 12 5 10 7 15 3h3l3-2 4-13 13-29 8-32 3-5 7-4 12-2h12l8 2 8 4 5 4 2 5 11 37 3 2 3 1 10-2 11-1 9-4 5-3 36-33 18-12 10-5h14l9 3 10 5h6l23-15 12-10 10-5 14-6 15-3 15-1 18 2 12 3 14 6 10 8 9 10 2 3v4l-1 10-2 7-12 26-13 24-26 41h3l25-40z"/>
  <path class="st1" d="m2194 964 7-30 10-39v-6l-2-3-4-1-5-1h-12l-11 2-5-1-4-1-9-8-7-2-6 1-8 2-7 4-13 10-34 31-7 6-38 22-27 20-12 6-22 13-6 3-2-1h-2l-9-10-4-7-17-39-4-6-7-6-8-2h-12l-6 1-14 4-26 3h-4l-5-1-40-19-13-3-13-1-16 1-7 1-5 2-28 20-4 3-4 6-3 1-22 2-34 4-10 1-8 3-12 7-16 13-18 10-7 3h-7l-20-6-12-6-16-8-17-11-7-6-4-9-6-21-6-19-9-21-16-33-23-43-7-12-6-8-12-12-10-15-9-11-12-11-9-7-14-9-14-7-12-6-12-4-15-4-13-1-19-2h-39l-8 2-4 2-3 3v4l1 4 3 6 5 8 9 12 39 44 11 19 2 4-1 1-1 1-3 1-24 4-15 6-6 3-2 5 2 4 5 5 29 18 33 24 20 19 14 16 5 6 6 13 4 12 4 13 1 12v16l-2 9v1l10 6 6 1 5 3h3l19 9h5l-4-2-18-9h-1l-3-1-5-2-6-1-8-5 2-8v-17l-2-13-3-13-5-11-6-14-4-7-15-16-20-19-33-24-29-18-4-4-2-3 2-3 4-3 15-5 23-5 5-1 2-2v-3l-1-4-12-20-39-44-9-12-5-7-2-6-1-3v-3l2-2 2-2 8-1h38l20 1 12 2 15 3 12 5 12 5 14 7 13 9 10 7 11 10 9 11 10 15 12 13 6 8 7 12 22 42 16 33 9 21 7 19 5 21 5 9 7 7 17 11 17 8 12 7 20 5h8l9-3 17-10 16-13 12-6 8-3 9-2 35-4 22-1 4-2 4-6 4-3 27-19 5-2 6-2 16-1 13 1 12 3 40 19 5 2h5l27-4 14-3 5-1h12l6 2 6 4 5 6 16 39 4 7 10 11 3 1h4l6-3 22-13 13-6 26-19 39-23 7-6 34-31 13-10 6-3 8-3h5l5 2 9 7 5 1 6 1 11-1h17l2 1 1 2v4l-10 39-7 30-5 36-1 7h3l1-7z"/>
  <path class="st1" d="m2851 991-3-7v-3l2-5 18-33 9-21 7-16 2-12v-9l-3-8-12-14-11-8-21-9-24-6-18-1h-1l-17 2-12 3-22 8-12 6-10 7-3 2-4-1-8-6-6-1-6 1-12 3-14 2-6 3-8 5-15 12-22 16-4 3-5 7-2 2h-3l-10-1-11 1-1-1-3-10-8-11-6-7-7-6-8-6-7-3-6-1-13-1-3-2 1-3 8-9 3-6v-4l-2-4-3-5-3-3-6-2-8-1-17 2-1-1-5-6-6-5-7-3-15-3-8-5-5-2-17-5-17 1h-4l-1-1v-1l-1-3 3-21-1-17-2-6-1-5-3-3-4-3-5-2-6-1-26-2h-4l-1-2-7-9-7-5-9-4-11-2-10 1-10 2-11 5-19 10-6 3h-7l-25-3-3-2-3-3-24-57-24-54-7-12-6-8-7-6-6-1-4-1-6 3-10 9-8 10-5 12-5 18-8 50-5 25-2 16v19l-1 5-2 3-9 8-11 11-8 5-10 3h-2l-2-1-6-8-7-14-7-10-10-9-10-6-9-3-10-1-37-2-25-7-9-2h-17l-8 2-8 3-9 4-22 15-23 18-30 21-8 5-6 2-6 1-34 1-46-4-37-3-5-2-4-6-6-6-19-31-10-25-15-44-13-29-7-12-1-6-2-15-2-9-4-8-6-6-9-5-18-4-17-1h-27l-8 2-6 3-13 8h-3l-14-11-19-8-5-4-3-3-10-18-13-18-11-10-12-9-11-4-27-5-74-18-19-4-18-1-69 4-26-2h-10l-13 2-10 2-7 2-4 4-3 5v10l2 22 3 14 4 10 4 9 8 12-1 3-5 5-29 18-27 22-11 12-8 10-5 7-7 12-3 3-3 1-14 1-10 3-11 6-11 8-8 9-7 10-3 9-1 10-2 3-35 23-22 18-3 3v5l2 2 17 12 34 17 24 11 7 4 7 10 7 7 6 5 12 7 1 2 1 3 2 9 2 10v3l-10 8-3 2-32 11-17 9-7 2-44 8-18 5-17 7-6 3-6 5-6 7-11 17-2 7v13l-6 8-10 15-4 4h4l3-2 8-14 7-10 1-13 2-7 10-16 6-7 5-4 6-4 17-7 18-4 44-9 7-1 17-10 32-11 4-2 10-9h1v-4l-3-10-1-9-1-4-2-3-12-7-6-5-6-6-8-11-8-4-23-12-34-17-17-10-1-2v-2l2-3 22-18 35-23 3-4 1-10 3-9 6-10 8-8 10-8 11-6 10-3 13-1 5-1 3-4 7-12 5-7 8-10 11-11 27-22 28-18 6-5h1v-5l-7-13-4-9-4-10-3-13-2-22v-9l2-4 4-4 6-2 10-2 12-1h10l26 2 69-4 18 1 18 3 74 19 28 4 9 4 12 8 10 11 13 17 11 18 3 4 6 4 18 9 15 10h5l13-8 6-3 7-1 10-1h17l16 2 18 4 9 4 4 5 4 7 3 9 1 16 2 5 6 13 14 29 15 44 9 25 19 31 6 7 6 6 5 2 38 3 46 5 35-1 5-1 7-3 9-5 30-21 22-18 22-15 9-4 7-3 8-1 8-1 9 1 9 1 24 7 38 2 9 1 9 3 10 5 8 9 8 10 7 14 6 9 3 1 4 1 10-4 9-5 11-11 9-8 2-4h1l1-5v-20l2-16 5-25 8-49 4-18 5-12 8-9 10-9 4-2h4l4 2 7 5 6 8 6 11 25 54 24 57 3 4 4 2 26 3h7l7-2 19-11 11-4 9-3h10l10 2 9 4 6 4 7 9 2 2 4 1 26 1 6 1 5 2 3 3 2 2 2 5 1 5 1 17-2 21v4l1 2 2 1 5 1 17-1 16 4 5 2 8 5 15 4 6 2 6 5 5 6 2 2 18-2h7l5 2 3 3 3 4 1 3v3l-2 5-9 10-1 4 1 2 4 2 14 1 5 2 7 2 7 6 7 6 6 6 7 11 3 10 4 3 11-1 10 1 4-1 3-2 5-7 4-3 22-16 15-12 7-5 6-3 14-2 12-3h5l5 1 8 5 5 2 4-2 10-7 12-6 22-8 12-4 17-1h18l23 6 21 9 10 8 11 14 3 6v9l-2 11-6 17-10 20-17 33-2 5-1 4 3 7 1 5-1 10h3l1-10z"/>
  <path class="st1" d="M2150 989v-7l-1-8-2-3-3-3-6-2-12 1-9 3-20 12-6 5-6 5-5 8-3 6h3l3-5 4-7 6-5 6-5 19-12 9-3h11l4 1 3 2 2 3 1 7-1 7-2 9-3 8h3l2-7zM1830 998h-14l-36 3-12 3-3 2h5l10-2 36-3h14l14 2 7 3h6l-12-5z"/>
  <path class="st1" d="m2205 968 3-19 2-9 4-12 14-28 8-18 3-17v-4l-3-4-6-1-8-1-31 4h-3l-4-2-6-7-6-4-6-1-8 1-18 12-14 10-55 48-46 25-24 15-10 6-6 2h-3l-1-1-8-6-3-4-11-23-9-16-8-8-9-6-10-2-10 1-10 2-14 7-17 2-6 1-29-4-23-8-11-3-11-2-15-1-12 1-10 3-7 4-11 8-6 3h-5l-24-1-14 1-20 4-20 5-8 4-6 4-22 21-8 6-6 3-8 4-6 1-4-1-3-1-12-6-14-5-5-2-13-10-7-8-3-6-3-15-5-17-12-29-11-23-26-46-7-13-7-9-6-5-14-11-16-20-12-13-14-13-12-9-17-10-17-9-18-6-16-3-37-2h-14l-16 1-29 4-6 2-5 4-3 5 1 6 2 6 6 10 6 8 18 22 23 24 10 14 2 3v2l-1 1-1 1-8 3-25 4-13 4-9 5-1 2-2 3v1l3 6 7 7 11 6 31 17 20 13 28 21 18 16 6 8 5 8 3 7 2 8 1 7-1 6-2 6-4 6-12 16-3 2h-3l-9-3h-8l-12 1-10 2-10 4-9 5-7 5-10 9-5 3-6 1-31 6-14 4-5 2h7l13-4 31-5 6-2 6-3 10-9 7-5 8-4 10-4 10-3 11-1 7 1 9 2h5l4-2 13-16 4-7 2-6 1-7-1-8-2-7-3-8-5-8-7-8-18-17-29-21-20-13-31-17-10-6-7-6-2-5 1-3 1-1 8-5 13-4 25-4 8-3 2-1 2-3v-2l-3-4-10-14-23-25-18-22-6-7-5-10-2-6-1-5 2-4 4-3 6-2 29-4 15-1h14l36 3 16 2 18 6 17 9 17 10 11 9 14 12 12 13 16 21 14 11 6 5 7 9 7 12 25 47 11 22 13 29 4 17 3 15 3 7 8 8 14 10 5 2 14 5 12 7 4 1h4l6-1 9-3 6-3 9-7 22-21 5-4 8-3 20-6 20-3 13-1 24 1 6-1 7-3 10-8 7-4 10-2 11-1 15 1 11 1 10 3 23 9 30 3h6l17-3 15-6 10-3h9l9 2 8 4 7 9 10 15 11 23 3 4 8 7 2 1h5l6-2 11-5 24-16 46-25 55-48 13-10 18-12 7-1 4 1 6 4 6 7 5 2 4 1 31-4h7l5 1 3 3v3l-4 16-8 18-13 28-4 12-3 9-3 20-1 21-4 17h3l4-16zM909 214l-3-4-16-14-53-43-43-34-20-14-6-2-6 1-5 3-5 4-12 15-21 15-15 16-3 6-2 6 1 7 4 12 10 19 22 33 19 25 26 29 12 12 21 13 16 7 6 1 6-1 8-3 8-7 5-7 2-11 1-3 20-16 11-12 6-9 6-10 3-9 1-11-2-10-2-4zm0 24-3 9-5 10-6 9-10 11-21 17-2 4-2 10-4 7-7 6-8 3h-5l-5-1-16-6-20-13-12-12-26-28-19-26-22-32-10-19-3-11-1-7 1-5 3-5 14-16 21-15 13-15 5-4 3-2 6-1 4 2 20 13 43 34 53 42 15 14 4 5 1 3 2 9-1 10zM2719 996l-2-3-3-1h-4l-11 3-13 6-12 5h6l7-3 13-5 10-4h4l1 1 1 2-1 7-1 2h3l1-2z"/>
  <path class="st1" d="m2296 1001-9-4-3-2-11-18-5-17-7-14-1-2v-3l3-9 12-33 17-40 8-24 2-11 1-9-2-8-4-8-4-3-5-2-8-2-10-1h-49l-10 1-13 3-3-1-6-4-14-14-1-1-6-2-4 1-6 5-15 22-5 5-16 8-24 14-54 47-8 5-11 5-3 1h-3l-1-2-11-18-14-19-11-14-8-7-9-4-12-3-16-1-26-1-13 1-11 5-13 8-14 12-15 7-6 2-22 1-31-2h-34l-32-3-25 2-18 3-20 6-32 12-26 13-4 1h-1l-3-2-10-13-10-20-4-8-11-13-8-13-7-8-8-10-12-13-4-7v-5l1-2 2-2 10-4 6-4 5-6 3-9 1-12-2-16-5-19-4-8-4-3-3-2-4-1-6-1-20 2-23 5-3-1-5-3-15-17-11-10-9-4-27-11-28-17-7-7-6-9-4-11-9-32-3-8-5-8-6-6-6-3-7-3-11-2-19-1-17 2-15 3-10 5-5 3-2 4-3 6-1 5v16l3 17v3l-1 2-4 2-9 4-33 9-29 10-21 10-9 7-4 4-3 6-5 13-5 21v14l2 12 4 9 5 9 12 12 1 1v1l-5 2-39 13-26 9-10 6-4 3-2 4v5l2 4 10 12 7 5 17 7 26 9 23 10 72 29 24 12 5 4 1 1-1 1-10 5-11 7-4 3-36 13-51 19-9 4-8 4-6 6-5 6-4 11-6 12-1 4 1 7-3 4-3 4h-4l-18 3-27 10h7l20-7 18-3 5-1 4-4 4-5-1-8v-3l6-12 4-10 6-7 5-5 7-4 9-4 51-19 36-13 5-3 11-7 10-5 2-3-2-3-6-4-24-12-71-29-23-10-27-9-17-8-6-4-9-11-2-4v-3l1-3 3-3 10-6 26-9 39-12 7-4v-2l-1-3-12-12-6-8-3-9-2-11v-14l5-20 5-13 3-5 3-5 8-6 21-10 28-9 34-9 9-4 5-3 1-3 1-4-4-17v-16l2-5 2-5 2-3 4-3 10-4 15-3 16-2 18 1 11 2 7 2 5 3 5 6 5 7 4 8 8 32 5 11 6 9 7 7 29 18 26 11 9 4 11 10 15 17 5 4h5l24-4 19-2h5l3 1 3 1 3 3 4 8 5 18 2 16v11l-3 9-5 5-5 4-10 4-3 2-2 4v6l5 8 12 12 8 10 6 9 9 13 11 13 4 7 10 20 10 14 4 3h3l4-1 26-13 32-13 20-6 17-3 25-1 31 2h35l31 2h23l6-2 16-7 13-13 13-8 11-4 12-1h26l15 1 12 4 9 3 7 7 11 13 14 19 11 19 1 2 5 1 4-2 11-5 9-5 54-47 24-14 16-8 5-6 15-21 5-4 3-1 5 1 14 15 7 5h4l14-3 9-1h49l10 1 7 2 5 2 2 3 4 7 2 7v9l-2 10-8 24-17 40-13 33-2 9-1 4 1 3 8 14 4 17 12 19 3 2 10 4 4 3h5l-3-2zM2861 277l-15 15-9 8-4 6-8 18-12 17-10 11-23 21-43 39-9 7-19 11-12 9-3 2-9 3-3 4-2 5-6 17-6 14-1 6 2 4 7 9 5 11 4 16 2 24 1 10v6l2 5 3 1h5l5-1 10-4 12-8 20-16 14-11 9-5 10-3 9-1h9l24 2 13 2 10 1 8-2 16-8 8-1 7 1 7 2v-2l-6-2-8-2-9 2-16 7-8 2h-9l-12-3-24-2h-10l-10 1-10 4-10 4-14 12-20 16-11 7-10 4-4 1h-6l-1-3v-6l-1-11-3-24-3-16-5-11-8-9-1-3 1-5 6-14 6-17 2-5 2-3 8-3 4-2 12-9 19-11 9-7 43-39 23-21 10-12 13-16 8-19 3-5 9-8 15-15 13-15 13-14v-4l-15 16z"/>
  <path class="st1" d="m2869 20-14 7-20 13-37 24-10 6-8 2-33 4-22 4-47 11-70 21-23 9-18 9-17 11-17 11-22 19-18 16-8 8-8 10-5 9-4 10-5 5-13 5-32 8-19 6-13 5-24 12-17 12-23 16-29 19-28 21-19 11-25 16-17 12-17 16-5 2-20 4-10 4-11 7-12 9-7 7-10 13-9 16-6 12-3 10-9 36-7 20-8 20-6 19-8 31-5 25-2 5v1l-1 1h-13l-26 4h-5l-3-1-34-43-13-15-1-2-3-14-10-22-3-7-4-3h-5l-4 1-18 7h-5l-21-10-10-3-13-3-17-7-13-2h-6l-5 1-5 2-3 4-8 17-2 2-10 4-9 6-12 10-14 16-8 10-7 12h-3l-12-5-15-6-2-2-3-8-6-9-5-6-7-7-10-7-6-5-9-3-9-2-4-2-22-24-15-13-7-4h-1l-9-1-16 2-5 2-4 3-3 5-5 13-2 2-3 1-8 1-7 1-22-3-17 1-4-1-3-2-21-19-22-16-23-17-18-9-12-5-18-4-23-8-22-5-25-7-24-5-8-3-29-16-10-4-16-3-15 1-17 2-24 4-17 5-14 1-5-2-23-8-88-28-3-2-3-3-3-19-3-9-4-10-8-13-2-4v-5l3-14 2-13-1-14-1-11-2-10-5-13-6-10-6-8-10-8-17-10-6-4-20-21-55-52-61-41-8-6-3-3-1-4 1-16-2-11-5-10-9-8-6-5-9-4-7-2-9-2h-24l-8 2-7 3-11 6-5 5-4 5-6 10-9 30-2 1-2 2-3 1h-6l-28-4h-22l-18 1-22 4-19 6-18 8-5 4-6 6-9 11-4 8-2 13v27l-4 30 1 13 5 26 7 19 4 9 8 15 9 20 5 8 6 4 11 3 20 4 13 6 7 2 16 2 12 1 11-1 18-4 4 1 32 25 4 4 4 9 7 23 8 15 7 8 9 11 18 15 6 3 9 3 8 1 9 1h12l26-6h7l42 11 29 6 4 3 7 10 9 12 16 15 23 26 5 6 1 3-2 1-19 2-16 4-10 4-8 7-5 7-4 6-2 8-4 17-1 8 1 7 4 12v1l-1 1-17 9-15 11-27 9-10 6-6 5-5 7-1 5-1 5 2 8 5 14v3l-1 2-14 9-17 8-7 5-10 10-11 12-16 21-6 11-7 11-1 4-1 4 1 4 2 4 12 14 5 13v4l-1 14 2 11-1 1-6 2-33 11-3 3-1 3 1 4 2 4 8 14 5 6 8 7 1 3v3l-4 8v6l2 9-1 5-9 19-14 11-12 10-1 1 2 2 13-11 15-12 9-19 1-6-2-9v-5l4-8v-5l-2-3-8-7-4-6-9-14-1-3-1-4 1-2 2-2 32-10 7-3 1-3-1-11 1-14-1-4-4-14-12-14-2-3-1-4v-3l1-4 8-11 6-11 16-21 10-11 9-10 8-5 16-7 15-11 1-2 1-4-6-15-1-7v-5l2-4 4-6 5-4 11-6 26-10 16-11 17-9 2-2-1-3-3-11-1-7 1-7 3-17 3-8 3-6 5-6 8-7 9-4 16-4 19-2 3-1 2-2-2-5-5-6-24-26-16-15-9-11-6-10-5-5-30-6-43-11-8 1-26 5-11 1-9-1-7-1-8-3-6-3-18-15-9-10-7-8-7-15-7-22-5-10-4-5-32-25-6-2-18 4-11 1h-11l-17-3-6-2-13-5-20-4-11-4-5-3-5-7-8-20-9-15-4-9-6-18-5-26-1-13 3-30 1-27 2-12 4-8 8-11 6-5 5-4 17-8 19-6 22-4 17-1 22 1 28 3h6l4-1 3-2 2-2 10-30 5-10 4-5 5-4 10-6 7-3 8-1 12-1 10 1 9 1 7 2 8 4 7 5 8 8 5 9 2 10-2 17 1 4 4 4 8 6 61 41 55 52 20 21 7 5 17 9 9 8 6 8 5 9 5 13 2 9 1 11 1 14-2 13-2 14-1 6 2 4 8 14 4 9 3 8 4 20 3 4 4 2 88 29 23 8 6 1h14l18-6 23-4 17-2h15l15 2 10 4 29 16 8 4 24 4 25 8 22 4 23 8 18 4 12 5 17 9 24 17 21 16 21 19 4 2 4 1h17l23 3 8-1 8-1 4-2 2-2 5-14 3-4 3-3 5-2 15-2 9 1 6 4 15 13 22 24 4 3 10 1 8 3 7 5 9 7 6 6 5 6 6 9 4 8 3 3 15 6 12 6h2l3-1h1l7-13 8-9 14-16 12-10 9-5 9-5 3-2 8-18 3-3 4-2 4-1h5l13 3 17 6 13 3 10 4 21 10h6l19-7 4-1h3l2 2 4 6 9 22 4 14 1 3 13 15 34 42v1l4 1 6 1 27-4 12-1 3-1 1-2 2-6 5-24 8-32 6-19 8-19 7-20 8-36 3-10 6-12 9-15 10-13 7-7 11-9 11-6 10-4 19-5 6-2 18-16 17-12 24-16 20-11 28-21 29-19 23-16 17-11 23-12 13-6 19-6 32-8 14-5 5-6 5-10 5-9 8-10 7-7 18-16 22-19 16-11 18-11 17-9 23-9 70-20 47-11 22-4 33-5 8-2 11-5 37-25 19-13 14-6 12-5 7-2v-3l-8 2z"/>
  <path class="st1" d="m924 216-4-5-41-34-83-65-14-11-16-17-6-4-2 1-3-1-5 4-6 5-10 12-11 14-3 3-29 17-14 11-4 5-4 7-1 6 1 5 6 14 10 16 46 61 14 16 35 39 15 13 13 10 6 5 9 4 8 1h8l8-1 20-6 13-8 9-8 4-7 1-11 1-3 9-8 9-10 5-8 4-11 3-10 2-15v-13l-1-9-2-4zm0 26-2 14-3 10-4 11-5 8-8 9-9 9-2 4-1 10-3 7-8 8-13 7-20 6-7 1h-7l-8-1-8-4-7-4-12-11-15-13-35-38-14-16-46-61-9-16-6-13-1-5 1-5 3-7 4-5 13-10 30-17 3-4 11-14 10-11 6-6 4-2h3l5 2 16 17 14 12 83 64 41 35 3 4 2 4 1 8v13zM1892 998l-6-3-13-2-11-9-7-4-9-3-16-5-8-1h-8l-4 1-4 2-3 4-2 5-3 2-33 7-17 8h-60l-18 2-10 4h-1 7l5-1 17-2 34-1 21 1 6-1 17-7 33-7 4-3 2-6 3-3 3-2h4l7-1 7 1 17 5 8 3 7 4 10 9 14 2 5 3 4 6h3v-2zM2161 991l2-11v-10l-1-7-2-7-5-5-5-3-6-2h-10l-8 3-37 23-9 7-9 8-4 5-3 5-2 9h3l2-8 2-5 4-5 9-8 9-6 36-23 7-2h9l6 1 5 2 4 6 2 6 1 7-1 8-2 11-2 10-2 6h3l1-5z"/>
  <path class="st1" d="m2221 970 1-7-2-11v-5l2-7 3-7 21-41 13-31 3-10v-9l-2-6-4-4-10-2h-15l-12 1-18 5-5 1-5-1-12-7-6-2h-6l-6 2-9 5-11 8-40 32-38 32-49 27-15 8-4 2h-2l-2-1-5-4-8-15-12-25-6-9-4-5-6-3-6-2h-11l-17-1-12 1-8 1-14 7-10 2-11 5-3 1-28-3-18-4-14-3-23-1h-10l-9 1-7 2-10 4-3 1-19-2h-11l-13 1-12 1-19 6-16 7-20 12-30 23-7 3h-5l-12-4-10-3-5-2-10-6-6-6-2-6-7-33-8-21-16-31-25-38-10-21-8-10-7-7-15-7-5-4-17-22-11-12-14-13-13-11-20-12-14-6-16-6-18-3-34-3-28 1-13 1-20 3-13 2-17 6-8 5-3 6-2 7 2 8 4 9 16 24 33 37 2 3 1 2-1 1-4 2-28 8-23 8-7 5-5 4-2 3-1 4 1 4 1 3 10 6 11 6 32 11 23 10 11 6 14 8 20 16 9 8 12 12 4 6 4 7 2 6 1 5-2 6-3 7-2 1-2 1h-12l-15 4-22 4-10 4-17 7-68 42-17 11h5l13-9 69-42 16-7 10-3 22-4 14-4h13l3-2 2-2 4-7 2-7-1-6-2-6-5-8-4-6-12-12-9-8-21-16-13-8-12-7-23-10-32-11-11-5-8-6-2-2-1-3 1-3 2-3 5-3 6-4 23-8 28-9 5-2 1-1 1-2-1-2-3-5-33-36-16-24-4-9-1-7 1-6 3-5 8-5 15-5 13-3 20-3h13l28-1 33 2 18 4 16 5 14 6 20 12 12 11 14 13 11 12 17 22 5 4 15 7 7 6 7 10 10 21 25 39 17 30 7 21 7 33 2 6 7 6 10 7 6 3 10 2 13 5h6l7-3 31-24 20-12 15-7 19-5 11-2 13-1h11l19 2 4-1 10-3 7-2 8-2h10l22 2 14 2 19 5 28 3 4-1 11-5 10-3 14-6 7-2h29l11 1 5 1 5 3 4 4 6 9 12 25 8 15 5 5 4 2h3l4-2 15-9 49-27 39-32 40-32 10-8 9-5 5-2h6l4 2 13 7 6 2 6-2 18-4 11-2h15l8 2 4 3 1 6v7l-3 10-13 31-21 41-3 7-2 7v6l2 11v7l-8 31-1 5h3v-4zM2753 156l-10-1h-30l-11 1-10 3-7 2-8 5-9 8-12 15-10 18-10 26-3 5-3 4-7 5-31 18-14 9-31 24-20 16-24 22-16 21-7 11-4 13-1 6 1 5 2 5 2 5 4 4 5 3 9 4 7 3 8 1 8-1 11-2 13-7 19-15 19-19 7-5 13-6 26-10 20-8 13-8 11-9 9-13 5-8 2-5 3-15-1-18 2-5 5-6 18-22 23-28 18-25 4-7 1-6v-5l-3-5-6-3zm6 13-1 5-4 7-17 25-23 28-18 21-6 7-1 6v18l-2 14-2 5-5 8-9 12-11 9-13 7-19 9-26 9-14 7-7 5-19 19-18 15-12 6-12 3h-7l-7-1-7-2-9-4-4-3-3-3-3-5-2-5v-5l1-5 3-12 8-11 15-20 24-23 19-16 32-23 14-9 31-19 7-4 4-5 3-6 10-26 9-17 12-14 9-8 7-5 7-2 10-3 10-1h30l9 2 5 2 2 3v5z"/>
  <path class="st1" d="m2809 131-8-1-19 1-16 2-25 4-30 6-21 5-14 5-13 6-13 10-12 13-9 13-13 26-7 10-8 8-52 35-60 35-8 6-8 7-12 13-8 11-4 8-6 17-1 11v8l1 7 3 6 12 15 10 16 5 5 3 3 4 2 6 1 14-1 13-3 21-7 14-7 9-5 12-10 11-12 12-14 6-5 11-6 28-11 20-9 16-9 15-12 10-12 5-11 3-14v-23l1-5 2-5 8-10 34-34 38-43 12-15 7-12 4-11 1-4-1-2-3-2zm1 8-4 10-7 12-11 14-38 43-35 34-8 10-2 6-1 5-1 24-2 14-5 10-10 11-14 12-16 9-20 9-27 11-12 6-6 5-12 15-12 11-11 10-9 5-14 7-20 7-13 2-13 1-5-1-4-1-2-3-5-5-10-16-12-14-2-6-2-6v-7l1-11 5-17 5-8 7-10 12-13 7-7 9-6 59-35 53-35 8-9 8-10 12-26 9-13 12-13 13-9 12-6 14-5 20-5 30-6 25-4 16-2 18-1 8 1 2 1 1 1-1 4zM2877 962l-3 5v1l1 3 2 13 1 6-2 8-2 8h3l2-8 1-8v-6l-3-13v-3l2-5 10-19v-6zM2872 834l-17-5-11-8-7-3-13-3-21-1-15 2-16 4-19 8-6 2-3-1-12-4-9-2-8-1-8 1-6 2-9 5-4 3-7 7h-1l-8-1h-12l-5 3-11 6-15 11-3 1-24 2h-3l-10-7-9-4-8-2-12-3-2-1-1-3 1-10-1-8-5-17-3-5-4-4-5-2h-8l-20 4-5-1h-1l-6-9-5-5-20-13-7-3-15-2-4-1v-3l2-22 1-10-1-7-2-8-3-5-5-5-5-3-6-2-9-1h-32l-3-2-8-10-15-15-8-2-6-1-10 2-9 3-49 32-13 9-4 1h-3l-9-1-3-1-5-6-18-32-18-35-16-37-8-16-7-12-6-5-5-4-6-2-6 1-6 1-4 3-5 4-13 15-7 11-4 7-5 13-4 14-2 12-3 29-3 17-12 49-2 4-2 3-11 10-3 1-3-2-11-15-10-11-8-5-10-4-9-2-10-1-43-1-26-7-11-2h-12l-8 1-8 1-8 4-7 3-51 38-29 17-10 5-6 1-33 4-61-4-3-1-3-1-6-9-13-12-14-20-2-5-5-18-9-25-12-29-6-14-3-14-3-4-5-7-1-4-1-12-3-10-4-7-3-5-5-5-7-4-11-3-12-3-15-2-17-1h-16l-9 1-8 2-11 5-3 1-1-1-12-9-14-8-16-20-16-17-11-8-13-8-9-3-18-2-10-2-32-10-27-5-52-16-6-1h-7l-18 3-44 4-11-1-32-9-13-2-19 1-12 2-7 2-8 4-4 5-2 9 1 9 4 17 5 15 12 32 8 17v3l-1 1-5 3-33 18-14 9-9 7-5 4-5 7-11 21-2 3-3 1-13 1-8 2-14 8-11 7-14 13-9 13-4 10-1 11-1 3-4 3-22 12-8 6-11 11-23 12-7 5-3 4v2l1 3 4 2 26 12 21 11 19 8 22 13 4 4 3 10 14 19 1 3-13 12-16 6-9 5-4 4-4 7-4 3-34 10-25 9-10 6-9 6-9 7-7 7-5 7-3 6-1 7 2 13-6 11-1 2v2l-1 1-1 2-2 5-5 5-10 5 1 1h2l8-4 6-5 3-6 1-4 1-3 6-12-1-13 1-6 2-5 5-7 7-7 9-7 9-6 10-6 24-9 35-10 4-3 4-7 4-3 8-5 16-6 14-14h1l-1-5-14-19-4-10-4-4-23-14-19-8-20-12-26-11-3-2-1-1v-2l2-2 7-5 23-12 10-11 9-6 22-12 4-4 2-4 1-10 4-10 8-12 14-13 10-7 14-8 7-1 14-2 4-1 3-4 10-21 5-6 5-4 9-7 13-9 34-18 5-3 1-2 1-5-9-17-12-32-4-15-4-17-1-8 2-8 3-4 7-4 7-2 11-2 19-1 13 2 31 9 12 1 45-4 17-2h7l5 1 52 15 28 6 31 9 11 2 17 2 8 3 14 8 10 8 16 16 15 21h1l14 8 12 10h7l11-5 7-2 10-1 15-1 17 1 14 2 12 3 11 4 6 3 4 4 4 5 3 7 3 9 1 12 1 5 6 8 2 3 3 13 6 15 12 29 9 24 5 19 3 5 14 21 13 11 6 9 4 3h4l61 5 33-4 6-1 12-6 29-17 51-38 6-3 8-3 8-2 7-1 11 1 11 1 27 8 43 1 9 1 9 2 9 3 8 5 10 10 11 15 4 4 5-2 12-10 3-4 2-5 12-48 3-18 2-28 3-13 3-13 5-13 4-7 7-11 13-14 4-4 4-2 6-2h5l5 2 4 3 5 5 7 11 8 16 17 37 18 35 18 32 5 7 4 2 10 1h3l5-2 14-9 48-31 9-4 9-1h5l7 2 15 14 8 11 4 2h32l9 2 5 1 5 3 5 4 2 5 2 7 1 7v10l-3 22v3l1 2 5 2 15 1 7 3 19 13 4 4 7 10 2 1h6l20-4 7 1 5 2 3 2 2 5 6 16 1 8-2 10 1 4 4 2 13 3 7 2 8 4 10 7h1l4 1 25-3 3-1 16-11 10-6 5-2 5-1h6l7 1h3l8-7 4-3 8-4 5-2 8-1 7 1 9 2 12 4h4l7-1 19-9 16-4 14-2 21 1 12 3 7 4 11 8 17 4 10 5 8 5v-3l-7-4z"/>
  <path class="st1" d="m2836 96-14 7-17 6-27 8-79 17-26 8-18 7-15 9-17 17-15 18-9 14-11 16-21 19-8 8-15 10-33 18-52 26-14 8-8 8-10 11-9 16-5 14-4 21 2 17 4 17 7 12 11 16 3 6v4l-1 9-7 41-4 10-5 10-31 42-10 16-2 6v7l2 3 6 2 8-1 16-10 15-5 6-4 6-6 13-17 9-19 17-17 6-7 5-9 8-16 5-6 50-31 16-11 16-15 17-18 10-13 6-5 9-5 36-15 12-6 18-10 17-15 10-11 6-13 3-12v-27l2-7 3-5 7-6 22-17 30-28 21-25 18-16 14-14 5-7 9-15 4-5 8-7 22-18v-3l-24 19-8 7-4 5-9 15-5 7-14 15-18 15-21 26-30 27-22 17-7 6-4 6-2 7v27l-3 12-6 12-9 11-17 15-17 10-12 6-36 14-10 6-6 5-11 14-16 18-16 14-15 11-51 31-5 7-8 16-6 8-5 7-17 17-10 20-12 16-6 6-5 3-16 6-15 9-7 1-4-2-2-1 1-5 1-6 10-16 32-42 5-10 3-11 8-41 1-9v-5l-3-6-12-16-6-12-4-16-2-16 3-22 5-13 9-15 10-12 8-7 13-8 52-26 33-18 15-10 9-8 21-19 11-16 9-15 15-18 17-16 14-9 18-7 25-8 79-17 28-8 17-6 14-7 49-29 3-1v-3l-4 2zM2528 982l-2-6-3-5-4-2h-5l-2 1-4 4-2 5-4 27h2l4-26 2-5 3-3 2-1h3l3 2 2 4 2 5 1 14 2 10h3l-2-11zM2375 997l-20-3-4-2-10-11-8-7-5-3-11-7-8-14-4-5-8-6-2-3-2-4v-6l3-13 5-15 16-38 8-26 3-11v-11l-1-8-3-11-6-10-4-5-6-3-7-2-11-2-18-2-34-1-20-4-16 1-5-2-2-3-3-5-12-33-6-15-11-22-5-5-5-1-2 1-3 2-4 8-3 8-2 11v17l2 12 2 14v7l-1 6-7 12-4 5-14 8-18 15-30 17-6 4-14 12-6 4-3 1-2-2-15-25-16-17-9-14-7-5-6-3-5-1-40-1-22-4-13-1-9 1-6 1-8 2-6 3-6 5-13 10-22 16-16 14-6 3h-12l-98-6h-26l-10 1-8 3-7 3-17 11-3 1h-1l-5-6-3-3-4-1-13-2-10-8-24-28-2-3v-1h1l15-2 6-1 2-3 2-2 1-7-16-41-5-17-6-30-5-15-5-13-5-8-3-4-5-4-3-2-6-1-8 1-8 2-13 4-25 12-3 1-3-1-13-12-9-7-15-8-17-5-7-3-21-15-5-4-3-4-2-6-11-47-5-9-8-8-8-5-8-3-45-8-16-1-15-1-32 1-19 1-15 3-9 2-7 3-7 5-3 4-2 5-1 8 1 9 3 8 13 26v3l-4 3-45 19-11 6-15 10-8 6-6 7-10 17-8 18-10 18-4 9v6l1 6 9 14 1 1v2h-1l-3 2-28 3-15 4-6 4-10 9-29 19-3 3-3 4v4l1 2 5 5 38 19 13 10 12 7 12 6 19 7 13 6 4 3 10 10 7 4 8 4 22 5 14 4 5 3v1l-29 15-34 13-10 5-7 5-4 5-18 21-22 13-19 13-3 2-5 1-32 5h-78l-6 1-6 3-3 4-2 4-1 9h1l-1 3 1 4 4 3h4l-5-4-1-3 1-5h-1l1-7 1-3 3-3 5-2 6-1 77-1 32-5 6-1 4-2 18-13 23-13 18-22 4-4 6-4 10-6 34-13 30-15 1-3-1-2-6-3-14-5-22-4-8-4-6-4-10-10-5-3-13-7-19-7-12-5-11-7-13-10-39-19-4-4v-1l-1-3 3-3 3-3 29-19 10-9 5-3 14-5 28-3 4-1 2-2v-5l-9-14-1-5v-5l3-9 11-18 7-18 10-16 6-7 7-6 15-10 12-6 45-19 4-4v-4l-13-27-2-8-1-8v-7l2-5 3-3 7-5 6-2 9-3 14-2 19-2h47l15 1 45 9 8 2 7 4 7 8 5 8 12 48 2 6 3 4 5 5 21 15 8 3 17 6 14 7 10 7 12 12 5 1h4l26-13 11-4 8-2h7l6 1 3 1 4 3 3 5 4 7 5 12 5 16 6 30 5 16 16 42-1 5-1 2-1 1-5 2-15 1-3 1-1 3 2 4 25 29 11 8 13 2 3 1 3 3 5 6 3 1 4-2 17-11 7-3 7-2 10-1 26-1 97 7h8l6-1 7-3 15-14 23-16 13-10 5-4 6-3 7-3 6-1h9l13 1 22 3 39 2 5 1 5 2 6 4 9 15 16 16 16 26 3 2 5-1 7-4 14-12 6-4 30-17 18-15 14-8 4-5 7-13 2-7v-8l-3-13-1-12v-16l2-11 2-8 4-7 2-2 2-1 2 1 4 5 11 21 6 15 12 33 3 6 4 3 6 2h15l20 3 34 1 19 2 10 2 7 3 5 2 4 4 5 10 3 10 1 8v11l-3 10-8 26-16 38-5 16-3 13v6l2 5 3 4 8 6 4 4 8 15 12 7 5 3 7 7 10 11 5 2 20 3 13 3 9 4h6l-14-6zM2781 991l10-13 19-28 3-9 4-12 2-10v-7l-2-5-4-4-8-2h-13l-13 3-14 6-10 5-17 11-21 11-23 15-16 9-18 12h-1l-3-1-7-8-6-3v-1h-6l-8 2-8 4-21 19-11 8-31 13h-1 7l27-11 11-8 21-19 7-4 7-2 5 1 5 3 7 8h1l4 2 2-1 18-12 17-9 22-14 22-12 17-11 9-5 14-5 12-3 13-1 7 2 3 3 1 5 1 6-2 9-4 12-4 8-18 29-10 13-12 14-3 2h4l1-1zM874 208l-10-12-18-16-22-19-8-7-9-5-8-3-4 1h-3l-7 3-8 5-10 8-8 9-2 7-2 7v8l1 8 5 13 10 23 6 11 7 10 7 6 7 3 8 1h11l14-1 11-4 12-5 8-7 8-8 6-10 2-8-1-9-3-9zm-1 25-5 9-8 8-8 6-11 6-11 3-13 2h-11l-7-2-7-2-6-6-7-9-6-11-10-23-4-13-1-8v-7l1-6 3-7 7-8 9-8 8-5 7-3h6l7 2 8 5 8 6 22 19 18 17 10 11 2 8 1 8-2 8z"/>
  <path class="st1" d="m966 333-5-12-7-11-2-4 1-7 5-33 1-22-1-9-2-8-3-6-3-6-8-8-19-11-33-31-15-12-56-44-36-29-4-5-2-4-1-6V52l-1-7-4-7-4-2-4-2-6-1-3 1h-4l-6 3-7 6-11 11-19 23-4 7-7 12-3 2-2 1-6 1h-12l-15-1-30-4-25-1-21 3-8 2-6 4-6 5-4 8-2 9v9l2 9 5 8 6 7 8 7 2 3 2 15 4 20 5 28 2 9 2 5 4 2 4 2h4l3-1 4-2 7-8 16-13 5-2 4 2 26 21 62 65 8 11 19 29 17 21 4 4 5 3 8 3 5 1h14l21-4 6 1 18 4 20 3h11l17-1 7 1 19 7 15 3h5l7-3 5-3 1-3 4-16 1-18-2-13-2-8zm1 39-4 15-1 2-3 2-7 3-4 1-14-3-19-7-8-2-17 2-11-1-20-2-18-5h-6l-22 3h-13l-5-1-7-2-5-3-4-4-17-20-18-29-8-11-63-66-26-21-6-2-6 2-17 14-7 8-3 1-2 1h-3l-3-2-3-2-2-4-2-9-5-27-4-20-1-15-3-4-9-8-5-7-5-7-2-8v-9l2-8 4-8 5-4 6-4 7-2 20-2 25 1 30 3 15 2h12l7-1 2-1 4-3 7-13 5-6 19-23 10-10 7-6 5-3h3l4-1 5 1 3 1 3 2 3 6 2 6v14l1 5 2 6 4 5 36 29 56 44 15 12 33 31 19 11 7 7 4 7 2 5 2 7 1 9-1 22-5 34v7l1 4 7 12 5 11 3 7 1 13v18zM2125 1002l-7-2h-10l-10 2-5 3-2 1h5l3-1 10-2h9l5 1 2 2h3v-1z"/>
  <path class="st1" d="m2258 995-2-3-1-17-3-11-6-15v-7l3-7 16-36 16-37 7-22 3-14v-5l-1-5-2-4-3-3-7-4-12-2-14-1h-23l-11 2-17 5h-3l-7-2-17-12-4-1h-4l-7 5-12 14-5 5-4 2-15 8-20 13-52 44-33 19-6 2-3-1-1-1-19-34-9-14-11-10-5-4-8-3-13-1-17-1-16 1-16 4-9 4-13 10-13 4-13 5-6 2h-9l-50-3h-36l-30-1h-15l-16 2-17 5-30 10-22 10-24 14-3 1h-1l-3-2-10-8-12-30-8-14-21-30-23-29-5-10-2-11v-8l1-3 3-3 9-4 4-3 4-4 2-6 1-7-2-11-2-7-4-7-3-3-6-3-6-1h-7l-11 2-23 10h-2l-2-1-14-23-6-7-7-6-13-8-25-12-15-7-9-6-8-7-6-7-5-9-4-9-6-14-7-13-3-4-5-4-6-2-6-1h-9l-14 2-8 4-8 5-3 5-2 6h-1l1 9 3 11v1l-1 1-17 5-44 9-20 6-28 10-6 3-5 4-7 10-5 10-2 18 1 11 5 12 7 11 8 11 14 12 2 3v1l-5 3-32 11-22 10-8 4-6 5-5 6-2 5h-1l1 4 2 4 8 6 40 17 68 25 26 13 12 7 9 7 7 8 2 4v1l-2 1-14 6-15 11-20 9-29 13-26 16-21 18-25 29-15 10h5l12-8 25-29 20-18 27-16 28-13 20-9 15-11 15-6 2-2 1-3-3-4-7-8-9-8-13-7-26-13-68-25-40-17-7-5-2-3v-3l2-4 5-6 6-5 7-4 22-10 32-11 6-3 1-3-2-4-15-13-8-10-7-11-4-11-1-11 2-17 4-10 7-9 5-4 5-3 28-10 20-5 44-9 17-5 2-2 1-3-3-11-1-9 2-5 3-5 7-4 8-3 13-3h9l5 1 5 2 5 4 3 3 6 13 6 14 4 9 6 9 6 8 8 7 10 6 14 7 26 12 12 8 7 6 6 7 14 22v1l2 1 5 1 23-10 10-3h7l5 2 5 2 3 3 4 6 1 6 2 11-1 6-2 5-3 4-4 2-9 5-4 3v5l-1 9 2 11 6 10 23 29 21 31 7 13 13 30v1l10 8 4 2h2l4-1 25-13 21-11 30-10 17-4 15-2 15-1 30 2 36-1 50 4 10-1 6-1 13-6 13-4 13-9 9-5 16-4 15-1 17 1 12 2 7 2 5 4 11 10 9 13 19 34 2 3 4 1 7-3 34-19 51-44 21-13 14-8 5-2 5-6 12-13 6-4 3-1 3 1 16 12 8 3h4l18-6 10-1 23-1 13 1 12 3 6 3 2 3 2 3 1 4v5l-3 14-7 21-16 37-16 37-2 7-1 8 6 15 3 11 1 16 3 5 10 9h3zM607 122l-5-4-7-3h-7l-7 3-3 4-2 6v4l3 6 5 4 4 3h11l6-4 4-6-1-7-1-6zm-5 17-4 3h-9l-3-2-3-4-3-5v-3l1-5 2-2 6-2h5l6 2 3 3 2 5v5l-3 5zM941 319l-8-12-1-4 2-11 6-25 3-21v-11l-2-11-2-6-5-7-18-12-36-32-70-53-20-18-13-13-6-8-2-5V57l-2-4-4-3-3-1h-2l-4 2-5 3-10 10-10 14-17 25-5 4-6 3-24 6-15 5-14 7-9 6-4 5-3 9-2 10 1 7 7 15 5 8 22 21 34 39 44 49 27 31 11 12 16 15 8 6 10 3 15 1h14l19-2 19-1 19-3h19l7-1 6-3 4-3 4-4 3-4 1-4 1-5-1-6-4-10zm0 20-1 4-2 3-3 4-4 2-6 3-5 1-19-1-19 4h-20l-19 3h-13l-15-1-8-3-8-5-15-15-11-12-27-32-44-48-34-40-22-19-5-8-7-15v-6l1-9 3-8 3-4 9-7 13-6 15-5 24-6 7-3 5-5 17-26 11-13 9-9 4-3 3-1 2-1h1l2 2 2 3 1 13 2 6 6 9 13 13 20 18 70 53 37 32 17 12 4 6 2 5 2 11v10l-3 21-6 25-2 11 2 6 7 12 4 9 1 5-1 5z"/>
  <path class="st1" d="m848 198-7-8-5-5-7-5-7-3-9-3h-6l-7 2-5 3-5 3-3 4-3 7-2 7-1 7 1 6 1 8 5 15 4 8 4 3 5 4 6 1 8 1 7-1 7-2 8-4 6-5 7-7 3-5 2-8v-7l-2-7-5-9zm3 23-2 6-3 5-5 7-6 4-8 4-5 2h-14l-5-1-5-3-3-3-4-7-4-15-2-7v-5l1-7 2-7 2-6 3-4 4-2 5-3 5-2h5l9 3 6 3 7 4 5 5 6 7 4 9 2 6v7zM1440 899l-5-6-15-12-3-4-4-10-7-19-6-9-4-4-5-4-6-2-6-1-4 1h-4l-15 6-5 2-2 3-2 4v11l4 12 7 10 8 6 12 7 9 5 14 15 12 10 7 3 10 3 7-2 2-2 3-4 1-3 1-4-2-8-2-4zm0 15-1 3-3 3-1 1-5 2-9-2-6-4-11-9-15-15-9-6-12-6-8-6-6-9-3-11v-11l1-2 2-2 3-2 14-6h4l4-1 5 1 5 2 4 3 4 4 6 8 6 19 4 10 4 5 15 12 5 6 1 3 2 7v3zM2728 172l-8-3h-14l-10 3-8 4-6 7-6 9-18 34-10 24-4 7-5 3-7 4-25 13-17 9-7 5-7 6-5 7-3 8-1 7-1 11 2 4 5 2 4 2 8-1h25l27-7 8-2 6-3 9-6 6-6 7-10 3-9 1-12-2-12 2-7 4-7 29-37 18-29 2-6 2-5-1-5-3-2zm-1 11-3 5-17 29-29 37-5 8-2 8 1 12v11l-2 8-7 10-6 5-8 6-5 2-8 3-26 6-12 1h-20l-4-1-3-1-1-3v-10l2-7 2-6 5-7 6-6 7-4 17-9 25-13 7-4 5-4 5-7 10-25 18-34 6-8 6-6 7-5 8-2h13l7 2 1 1 1 3-1 5zM2172 979l2-15v-18l-1-5-3-4-5-5-5-3-18-3h-11l-7 1-4 2-6 4-13 14-34 23-17 12-5 5-6 7-1 6v4l1 2h4l-2-3v-3l2-5 4-6 6-5 16-12 34-23 14-13 5-4 3-2 6-1h11l16 3 4 2 5 4 2 4 2 5v17l-2 14-4 19-3 9h4l2-8zM1913 977l-3-4-6-3-8-2h-26l-7-1-8-3-21-11-13-5-14-4h-13l-5 1-4 1-4 3-4 4-4 9-1 12-1 1-2 1-11 3-17 7-29-2-30 1-18 2-7 2-6 3-6 4-6 6-5 4h5l2-2 6-5 6-4 6-3 6-2 17-2h30l29 1h1l17-7 12-2 3-2 1-3 2-12 3-9 3-2 3-3 4-1 4-1 12 1 14 3 12 5 21 11 9 3 8 1h26l6 2 5 3 3 2 2 4 8 24h3l-8-25zM1905 629l1-8-2-14-5-10-5-6-4-1h-9l-4 3-9 10-10 6-2 4-2 6 1 4 2 3 3 4 4 2 8 2 13 1 12-1 5-1 3-4zm-9 2-11 1-12-1-7-2-3-2-3-3-1-2-1-3 1-5 2-3 10-6 8-10 4-2h6l3 1 4 4 5 10 2 13-1 6-3 3-3 1zM2830 947l6-12 4-9 3-13v-7l-2-6-4-7-5-5-10-5-11-2-19-1-11 1-13 4-13 5-9 7-15 13-4 3-25 11-17 10h-3l-7-6-8-3-11-1-11 1-6 3-8 6-24 24-24 21-3 1h-3l-10-4-11-1-3-1-2-5-7-27-4-9-3-3-6-3-8-1h-6l-5 2-5 3-4 6-4 5-10 28-7 28-4 8h4l4-7 7-28 10-28 3-5 4-4 4-3 4-2h5l7 1 4 2 3 2 4 9 7 27 3 6 3 2 11 1 11 4 5 1 4-3 24-20 25-25 7-5 5-3 10-1 10 1 7 2 8 7h5l18-11 25-10 5-4 15-13 8-6 12-5 13-4 10-1 18 1 11 2 8 5 5 4 3 6 2 5v7l-3 12-3 8-6 12-8 14-36 47h4l35-46z"/>
  <path class="st1" d="m2414 996-16-8-21-7-5-2-10-12-6-9-9-9-5-9-5-7-5-7-10-8-2-4-1-4 1-8 2-6 6-9 8-19 13-53 1-9-1-8-3-11-3-7-6-6-9-6-8-5-9-2-19-3-50-1-20-5-13-1-3-1-2-2-1-3-3-17-4-13-9-18-25-44-5-6-4-2h-6l-2 3-3 3-1 4-5 17-6 22-2 12-2 13v11l1 7 5 20-1 5-2 6-4 5-13 8-19 17-6 3-18 8-16 9h-2l-3-1-11-14-14-14-5-12-4-5-7-7-5-3-8-3-7-1-37-2-22-5-13-1h-8l-8 1-8 3-7 3-11 7-23 17-23 15-17 14-9 3-6 1h-11l-36-3-38-4-28-2-14 1-16 2h-3l-2-1-6-9-12-6-3-3-3-13-14-27-12-27-16-54-13-34-5-10-5-6-7-5-10-3-9-1-10 1-5 2-4 2-7 9-2 2-21 9h-3l-3-2-10-9-7-5-10-5-23-6-16-10-5-4-4-6-3-14-10-32-7-11-11-10-6-4-9-2-23-5-36-8-17-3-11-1h-12l-26 2-23 3-19 2-16 4-8 3-5 3-3 3-3 6-1 8v5l2 21 4 11 5 10v4l-6 4-25 11-15 9-11 9-14 13-8 10-11 15-17 29-5 12-4 15-1 2-4 1-17 1-6 1-5 3-9 9-8 11-4 4-32 23-8 7-2 4 2 5 8 7 19 10 31 14 5 3 14 11 38 20 4 3v3l-1 9v6l6 15v1l-7 8-6 25-3 3-4 2-32 7-20 7-10 6-6 5-6 6-3 2-6 1-40 1-29 3-11 2-8 3-5 5-6 8-4 7-4 8-2 2-9 13h4l9-11 5-11 5-6 5-8 4-4 7-3 10-2 29-2 40-2 7-1 4-2 6-7 6-4 10-7 19-6 32-7 5-2 4-4 6-26 7-8 1-2-6-15-1-6 2-9-1-5-5-4-38-20-13-10-6-4-32-14-18-10-7-6-1-2 2-3 6-6 33-24 4-4 8-11 8-8 4-3 5-1h17l6-2 2-3 4-16 5-12 17-28 11-15 8-10 13-13 11-8 15-9 25-11 7-5 1-2v-5l-6-10-3-11-3-20 1-5 1-7 2-5 2-3 4-2 8-3 16-3 19-3 22-3 26-1h23l16 3 36 9 23 4 8 2 6 4 10 9 7 10 9 31 3 15 5 7 5 4 18 11 23 6 8 4 8 6 10 9 4 2h4l23-9 3-3 7-8 3-2 4-2 8-1 9 1 9 3 6 4 5 5 4 10 14 34 15 54 13 27 13 27 3 13 4 4 12 6 6 9 4 2h5l16-2 12-1 28 2 39 4 35 3 12 1 7-1 10-4 17-14 24-15 22-18 11-6 7-4 7-2 7-1h8l12 1 22 5 37 2 7 2 7 2 5 3 6 6 4 5 5 12 15 14 10 14 5 3 5-1 16-9 17-8 7-3 19-17 14-9 4-6 3-6 1-5-5-21-1-7v-11l1-12 3-13 6-21 4-17 1-4 2-2 2-2h2l4 2 3 5 26 43 9 18 3 13 3 17 2 4 3 3 4 1 13 2 20 4 51 2 18 2 8 2 8 5 8 5 5 6 4 6 2 10 1 8-1 8-13 53-7 19-6 8-3 7-1 9 1 5 3 4 10 9 5 7 5 7 4 9 10 9 6 9 10 12 6 3 22 7 15 7 21 6 6 2h8l-12-5z"/>
  <path class="st1" d="m1359 798 11 7 6 2h4l5-3 4-5 2-6v-6l-2-6-2-5-5-8-5-6-8-9-8-6-9-7-9-4-7-3-8-1h-3l-3 1-5 2-3 4v4l3 6 5 8 30 33 7 8zm-39-50-2-5v-3l1-3 4-1 2-1h3l7 1 7 2 7 5 10 6 7 6 8 8 4 6 6 9 2 4 1 5v6l-1 4-4 5-3 1h-3l-5-1-9-7-8-7-29-33-5-7z"/>
  <path class="st1" d="m2231 1004-1-2v-5l5-16 2-9-1-11-2-15v-7l3-6 14-28 14-31 6-13 3-11 2-11v-11l-2-5-4-5-6-2-7-2-21-1-16 3-20 5-3 1-5-1-10-6-5-3-7-1-6 2-7 4-12 9-20 14-41 32-30 25-42 24-6 3-3 1-3-1-3-3-22-45-5-6-3-4-7-5-8-2-9-2-16-1-19 1-14 3-6 2-13 7-13 4-13 6h-24l-29-4-21-1h-19l-17 3-19-2h-15l-22 3-18 5-29 12-24 14-21 14-2 1-3 1-3-2-8-5-12-4-3-3-3-4-3-7-7-28-8-19-12-20-26-36-7-13-3-9-1-7-1-11v-13l-2-6-2-3-3-2-5-1h-24l-3-1-4-4-11-16-12-13-12-13-14-10-22-12-21-10-28-11-17-4h-29l-43 3-22 3-14 3-16 5-13 6-6 5-7 9-2 5-2 6 1 11 5 16 5 8 5 8 32 30 3 4v2l-1 1-2 1-32 8-25 10-7 4-6 6-4 5-2 6 1 4 4 5 13 7 75 27 21 9 17 11 12 9 12 12 10 15 1 3-1 3h-2l-10 3-6 3-9 7-32 10-22 10-11 7-10 6-22 16-20 18-20 18h5l18-16 20-17 22-17 9-6 11-6 22-10 32-11 9-6 5-3 11-3 4-1 1-5-2-4-10-16-12-12-13-10-18-10-20-10-75-26-13-8-3-3v-3l2-5 3-4 5-5 7-4 24-10 33-8 2-1 3-3v-4l-4-5-32-30-5-7-5-8-5-15v-11l1-5 2-4 6-9 6-4 13-6 15-5 14-3 21-2 43-4h29l15 4 28 11 21 9 22 13 13 10 12 12 12 13 11 16 5 5 4 2h4l21-1 3 1 2 1 2 3 1 4v13l1 11 2 8 3 9 7 13 26 37 12 19 8 19 6 28 4 8 3 4 4 4 12 4 8 5 4 2h5l3-2 21-14 23-14 29-12 18-5 21-3h15l19 2 17-2 19-1 20 1 30 4 20 1 5-1 13-6 14-4 13-7 5-2 14-3h33l9 2 7 2 6 4 3 4 4 5 23 46 4 4 5 2 4-2 7-3 42-24 30-25 41-32 20-14 12-10 6-3 5-1h5l5 3 10 5 7 2h4l20-6 15-2 20 1 7 1 5 2 3 3 2 5-1 10-1 10-3 10-6 14-14 30-15 28-2 8-1 7 3 15v10l-1 9-5 16-1 6 1 3 1 1h4z"/>
  <path class="st1" d="m2862 35-25 16-30 20-9 5-9 4-15 4-60 9-47 10-26 8-18 7-16 7-19 11-32 20-23 17-14 13-12 11-8 11-6 8-7 14-2 3-3 3-20 8-29 8-25 9-25 12-18 10-17 11-37 29-24 22-30 17-16 10-11 7-21 19-13 15-5 3-18 3-8 4-20 12-15 13-6 7-10 14-8 17-9 32-13 31-6 19-6 28-8 50-2 4-1 2h-1l-11-3-11-1-10 1-31 5h-5l-4-1-4-4-10-15-20-28-16-18-11-22-4-7-4-4-6-4-15-3-14-7-9-3-14-4-16-1-7 1-6 3-3 6-5 12-8 8-8 12-3 7-3 14-3 23-2 5-2 2-13 6-7 5-5 5-7 12h-1l-14-10-14-15-6-4-7-4-14-5-6-1h-15l-4-1-7-17-7-10-5-13-5-7-9-9-19-15-10-6-9-5-13-3-10-1-45 2-26-4-19 1-3-1-5-3-18-16-29-23-16-12-12-6-15-5-20-4-30-10-23-4-22-7-20-4-10-5-31-15-12-4-14-2-17 1-10 2-8 3-13 7-4 1-13 1-9-1-11-2-31-11-45-10-25-9-30-9-3-2-2-4-3-20-4-19-5-8-8-14-1-3-1-6 4-28-1-25-3-17-3-7-4-7-4-6-5-4-19-12-7-6-45-43-18-15-41-32-39-28-3-3-1-4 1-19-3-10-3-6-3-4-5-4-7-3-10-3h-11l-10 3-10 6-6 5-5 7-13 22-13 20-3 3-1 2h-11l-31-5-13-1h-12l-13 1-16 2-12 3-11 3-7 4-9 6-5 5-5 7-4 5-1 6-1 6-1 8 4 19 7 16-1 24 1 12 2 7 5 13 9 16 2 13 2 7 4 6 5 7 7 5 11 4 15 2h14l10-2 6-3 7-5 12-12h2l30 27 36 36 3 4 4 8 10 27 4 8 5 8 5 6 11 8 12 5 10 1h15l35-3h5l23 7 47 8 6 3 6 4 7 9 23 35 21 29 10 13 23 24 2 4 2 3h-1l-6 1-28-6-14-1-15 3-6 3-5 3-4 5-5 9-3 9-2 9 1 5 1 6 3 5 7 9v3l-4 2-18 11-9 6-10 8-12 13-24 13-7 5-4 6-2 8 3 7 6 10v1l-1 1-1 2-14 7-12 8-14 7-13 8-14 13-14 19-11 18-1 4v4l3 6 6 11 4 10 4 8 4 25 4 10v2l-2 2-6 2-32 9-4 2-3 4 1 4 3 5 7 6 10 7 2 3-1 3-5 6-2 6v4l2 12v8l-6 9-4 12-4 5-14 9-2 2-20 14-9 5 1 2 10-5 18-13 3-3 15-9 4-5 4-13 6-10h1v-8l-2-12-1-4 3-4 5-7 1-5-3-4-10-7-7-6-3-3v-3l2-3 3-1 32-9 7-3 2-3 1-3-4-11-4-25-4-8-4-10-7-11-2-5-1-4 1-3 11-18 14-18 14-13 12-8 14-6 12-9 15-7 2-2 1-2v-3l-7-10-2-7 2-6 3-5 7-5 23-13 13-13 9-8 9-6 19-11 4-3 1-2v-3l-8-9-2-4-1-6-1-5 1-9 3-8 5-9 4-4 4-3 6-3 14-3 14 1 27 6h8l3-3-2-4-3-5-23-24-9-12-21-29-24-36-7-9-6-4-8-3-46-9-23-6-6-1-35 4h-15l-9-1-11-5-11-8-5-6-4-7-4-8-10-27-4-8-3-5-37-35-30-28h-1l-2-1-3 1-12 12-6 5-6 2-9 2h-13l-15-1-10-4-7-5-5-6-3-6-2-7-3-13-9-16-5-13-1-7-1-11 1-24-7-16-4-19v-8l2-6 1-5 3-5 5-6 5-5 8-6 7-3 11-4 12-3 15-2 13-1h12l13 1 31 5 7 1 5-1 2-2 3-3 14-21 12-22 5-6 5-5 10-5 9-3h11l9 2 6 3 5 4 3 3 3 5 2 10v20l1 4 3 4 39 28 41 31 18 16 45 43 8 6 18 11 4 5 5 5 4 7 2 6 4 17v25l-3 28v6l2 4 8 14 4 8 5 18 2 20 2 5 5 3 30 9 25 9 45 11 31 10 12 3h23l4-2 13-7 8-3 9-1 17-2 13 2 12 4 31 16 10 4 20 5 22 6 23 5 31 10 20 3 13 5 12 6 16 12 29 23 18 16 6 3v1h23l26 3 45-2 9 1 13 4 9 4 10 6 18 15 9 9 5 7 5 12 6 10 8 18 6 2h20l14 5 7 4 5 4 14 15 15 10v1h3l1-2 7-11 5-5 7-5 12-6 4-3 2-5 3-23 3-14 3-7 7-11 8-9 6-12 2-5 5-3h6l15 1 14 3 9 3 13 8 16 2 5 4 3 3 4 7 11 23 17 17 20 28 9 16 6 4 4 2h6l31-5 10-1 10 1 11 2h3l3-2 2-5 7-50 7-28 6-19 13-31 9-32 7-17 10-13 6-7 15-13 19-12 8-4 18-3 6-3 13-15 21-19 10-7 16-10 31-17 24-22 36-28 18-12 17-9 25-13 25-9 29-7 21-9 3-3 3-4 7-14 5-8 9-10 11-11 14-13 22-17 32-20 19-11 16-7 18-6 26-8 47-10 59-10 16-4 9-4 9-5 30-20 26-16 12-7 13-5v-3l-14 6z"/>
  <path class="st1" d="m2876 38-12 7-57 35-11 6-10 4-16 4-49 7-45 10-32 10-20 9-11 6-34 23-29 22-17 17-12 16-11 18-6 7-8 4-13 6-15 6-29 8-27 12-30 16-21 14-11 10-14 13-11 14-11 14-4 4-4 2-16 7-17 9-16 11-13 11-14 15-9 17-7 9-6 9-3 1-21-4-6-1-6 1-6 1-6 3-6 4-6 5-10 12-14 22-5 11-17 39-12 29-5 18-10 46-5 26-3 7-1 2h-4l-6-3-6-2-15-1h-13l-34 5h-10l-3-3-5-7-11-16-18-26-20-23-7-15-8-11-5-4-7-3-15-4h-8l-9 2-18 11-5 3-4 5-2 7-2 14v10l2 14 6 13 3 5 5 3 5 2 9 2 10 1 12 1 4 1 1 1 2 6 4 7v1l-4 2-4 2-10 1-15 6-12 7-15 12-9 5-35 10-21 1h-1v-1l-3-9-4-7-7-6-13-7-18-23-8-10-7-6-5-3-7-3-8-1-14-1-4-1-1-1-5-10-7-17-6-12-5-13-5-8-8-10-8-8-11-9-8-3-14-4-15-2-37-1-26-3-19 1h-3l-5-3-17-16-28-23-17-12-10-6-12-4-21-2-37-11-59-15-11-4-34-16-11-4h-10l-12 1-8 3-9 7-4 2-15 2-11 1h-6l-7-2-42-14-9-3-11-1-51-1-29 3-8 1-6 2-9 6-4 3-2 4v22l2 6 6 14 12 20 34 45 7 10v3l-3 2h-17l-37-5h-11l-8 1-8 4-3 3-1 4v8l3 11 11 20 1 3-1 1-4 3-25 11-11 6-13 12-15 16-17 12-6 5-4 6v6l3 4 6 6 3 4 1 1-1 1-20 7-8 5-6 4-11 10-23 14-11 8-9 8-7 8-4 9-1 7 2 5 5 8-1 10 1 5 5 9 5 16 6 13 6 14v2l-4 3-7 4-26 8-4 2-1 2v3l1 2 4 3 12 5 2 1v1l-2 3-7 7-4 5-1 6 2 9-2 18-1 3-7 8-8 13-14 10-19 13-10 6 1 1 10-5 18-12h1l15-11 8-14 7-8 2-4 2-18-2-9 1-5 3-5 7-6 3-4-1-3-2-2-13-5-3-2-1-2v-1l1-1 3-2 26-8 8-4 5-3-1-5-5-14-7-13-5-16-4-9-1-5 1-9-6-9-1-4v-7l5-8 6-7 9-8 11-8 23-14 10-10 6-4 9-4 19-8h1l1-2v-3l-4-4-6-6-2-4v-4l3-5 6-5 17-12 15-17 13-11 10-6 26-11 4-3 2-3-1-4-11-20-4-11v-6l2-3 2-3 7-4 7-1 11 1 37 5 17-1 4-1 2-2v-5l-7-11-35-44-12-20-5-14-2-5-1-5 1-11v-5l2-3 2-3 9-5 5-2 9-2 28-2h50l11 2 9 2 42 15 8 1 6 1 11-1 16-3 5-2 8-7 7-3 12-1 9 1 11 3 34 16 11 4 59 15 38 11 20 3 12 4 10 5 16 12 28 23 17 16 6 3 4 1 19-2 26 4 37 1 15 1 13 4 8 3 10 9 8 8 8 9 4 8 5 13 7 12 6 17 6 11 2 1 4 1 15 1 7 1 6 3 5 3 7 6 8 9 18 24 13 7 6 6 4 5 3 10 1 2 3 1 22-1 35-11 10-5 15-12 12-7 13-6 10-1 5-1 6-4v-2l-4-8-2-6-2-3-5-1-13-1-9-1-9-2-5-1-4-3-3-4-5-12-2-14-1-9 2-14 3-7 3-4 4-3 18-10 8-3h8l14 4 6 3 5 4 7 10 8 15 20 23 18 26 11 17 5 6 4 4 4 1h7l34-5 13-1 15 1 5 2 6 3 6 1 3-3 3-9 4-26 11-46 5-17 11-29 17-39 6-11 13-22 10-11 6-5 5-4 6-2 6-2h11l21 4h4l7-11 8-8 8-17 14-15 13-11 16-11 16-8 16-8 5-2 4-5 11-14 11-13 14-13 11-10 20-14 30-16 27-11 29-9 15-6 13-6 9-4 6-7 12-19 11-15 17-17 28-22 35-23 10-5 20-10 31-10 45-9 50-8 16-4 10-4 11-6 58-35 11-6 11-5h1v-3l-2 1z"/>
  <path class="st1" d="m2866 54-53 31-15 7-14 6-15 4-47 8-46 10-29 10-10 4-13 8-38 28-22 19-17 19-11 15-8 14-5 5-14 7-25 12-18 7-28 10-15 6-20 11-15 13-15 15-12 17-12 17-18 32-4 3-13 4-15 7-9 5-9 7-23 22-8 10-5 10-4 6-11 14-14 13-5 2-5-1-4-2-17-13-5-3-5-1-5 1-4 1-5 4-8 10-13 24-17 27-10 18-15 34-7 17-8 32-8 44-3 8-2 3h-4l-6-4-5-1-12-2-37-1-34 2-21-5-15-2h-10l-20 3-14 4-13 5-12 8-28 18-21 11-10 5-25 9-21 2-22 7-7 1-2-2-2-5-4-5-17-16v-2l1-13-2-11-4-14-6-11-8-9-8-6-6-3-12-4-3-1-4-7-9-24-11-20-6-14-5-11-6-8-5-6-7-5-7-4-15-5-17-2-53-2h-11l-11 2-5-1-4-3-19-17-29-26-14-10-10-6-11-3-20-2-38-11-61-15-9-3-27-12-11-4h-15l-6 2-10 7-4 1-12 3-21 1h-7l-8-2-37-14-9-3-12-1-13-1-23 3-17 3-12 4-11 7-5 6-3 10v6l1 6 4 11 20 35 10 21 14 21v4l-3 2-9 4-41 10-8 3-5 3-4 5-3 7-2 7v11l-1 3-2 2-11 2-6 2-17 10-28 23-11 10-7 8-4 5-2 6 2 6 3 9-1 3-4 3-16 5-8 5-7 5-10 11-28 16-11 8-7 7-2 6 1 6 3 5 8 8 1 1v1l-5 7-2 5 1 8 2 7 5 9 6 9 13 15 5 12 5 6 8 5v1l-2 2-14 9-13 10-12 8-12 12-5 6-3 7-5 21-3 3-10 8-10 12-11 6h1l-8 6-15 13 3 2 14-13 12-7-1-1 7-4 10-12 11-7 3-4 5-22 3-6 5-6 12-12 11-7 14-10 13-9 4-4v-3l-9-7-4-4-5-13-14-15-6-9-4-8-3-7v-6l1-5 6-7-1-2-1-3-8-8-3-4-1-5 2-4 6-6 12-9 27-15 10-11 7-6 8-4 15-5 6-4 2-5-4-9-1-5 2-5 3-5 7-8 11-10 27-23 17-9 5-2 11-2 4-3 2-5v-10l1-7 3-7 3-3 5-3 7-3 42-10 9-4 4-3 1-3-1-4-14-21-10-21-19-35-5-11-1-6 1-5 2-8 5-6 9-6 12-4 17-3 22-2h13l11 1 8 3 37 14 10 2 8 1 21-2 12-2 5-2 9-7 5-2h7l7 1 10 3 28 12 9 3 61 15 38 12 20 1 11 3 9 5 13 11 30 25 18 18 6 3 6 1 12-1 10-1 53 2 16 2 14 4 7 4 6 5 5 5 5 8 6 11 5 14 12 20 9 24 4 8 4 2 12 4 6 2 8 7 7 8 5 10 4 13 2 11-1 13 1 4 17 16 3 4 3 6 4 3 9-1 22-7 21-2 25-9 11-5 21-11 28-19 12-7 13-5 13-4 19-3h10l14 2 21 5h1l34-2 36 2 12 1 4 1 6 4 5 1 3-1 3-4 4-10 8-44 8-31 6-17 15-33 10-19 17-27 13-24 8-9 4-3 3-1 4-1 3 1 5 2 16 13 6 3 7 2 6-4 14-13 12-14 4-6 6-11 7-9 23-21 8-7 9-6 14-6 14-4 5-4 18-33 12-16 12-17 14-14 16-13 19-11 14-6 28-10 18-7 26-12 14-7 6-6 8-14 11-15 17-18 22-20 37-28 13-7 9-4 29-10 46-10 47-8 15-4 14-6 16-7 53-32 12-6 9-3v-4l-11 4zM2877 137l-2 11-3 5-4 7-9 9-12 11-17 13-16 18-27 26-32 25-7 7-4 7-2 7-1 7 1 13v5l-3 7-7 12-15 17-13 12-21 12-21 11-32 13-8 5-5 5-9 13-15 18-29 32-14 13-12 10-27 17-4 4-9 13-5 6-20 18-6 8-28 52-6 12-3 14-2 10-5 9-1 4v8l1 2 4 2 6 1h22l21 2 12 3 6 3 2 3 1 3-1 12-2 7-9 23-2 7 1 6 3 3 16 7 7 4 11 10 2 4 3 6 2 2h5l27-1 6 1 5 3 3 4 2 4 5 16 5 21 1 2 3 3 8 1 19-2 5-1 3-3 8-7 7-4 9-4 11-2 4-1 2-2 7-11 3-4 6-4 9-5 8-1 15-2 13-2h17l7 1 8 3 4 2 4 6 3 1 15-3h10l23 4 20 6 8 5 7 4 4 4 8 10 3 3 4 1 17 2v-2l-16-3-3-1-3-2-7-9-5-5-8-4-8-5-20-7-24-3h-10l-15 2h-1l-4-5-5-3-8-3-8-2h-17l-13 3-16 1-8 2-10 4-6 5-3 4-7 12-1 1-3 1-11 1-11 4-7 5-8 7-3 3-3 1-19 1-7-1-1-1-1-2-6-20-4-17-2-4-4-5-6-3-7-2-27 2-3-1-2-1-2-5-3-4-11-10-7-5-16-7-2-2-1-5 1-7 10-22 2-7v-17l-2-3-7-5-14-3-21-1h-22l-5-1-3-2-1-1v-6l2-4 5-9 2-10 3-14 5-12 28-51 6-8 20-18 6-6 8-13 4-4 26-17 13-10 14-13 29-33 15-18 9-12 5-5 7-5 32-13 21-10 21-13 14-12 16-18 7-12 2-7 1-6-1-13v-7l2-6 4-7 7-6 31-25 28-26 16-18 17-13 12-11 9-10 5-7 2-5 2-11 3-4 7-6v-3l-9 7z"/>
  <path class="st1" d="m2819 92-32 13-15 4-76 16-28 8-16 5-11 6-10 6-27 24-41 43-9 10-9 15-7 6-7 4-11 5-40 17-34 14-10 4-4 3-21 18-15 18-3 5-5 11-7 23-3 21v16l4 32 6 19v3l-5 36-4 17-2 4-6 8-18 17-15 15-10 8-9 7-14 16-8 7-16 23-7 11-1 4v11l-2 13 1 9 4 10 1 6-1 3-2 2-7 4-3 2-2-1-3-2-4-8-11-15-21-33-10-23-9-33-6-12-2-8-2-4-9-10-11-8-7-3h-6l-6 2-6 3-6 7-8 8-16 24-14 25-5 11-5 20-3 17-3 25-3 14-5 12-5 9-4 8-3 2h-3l-9-7-6-3-13-4-30-2-39 1-6-1-14-5-11-2-13-1h-13l-14 4-14 6-13 8-19 15-22 15-38 19-4 1-15 2-25 4h-28l-11-1-3-2-5-10-18-15-8-10-1-4-4-17-5-12-6-15-11-19-15-39-11-18-3-13-3-7-5-9-6-8-6-5-6-4-10-3-11-2-33-3h-27l-12 1-10 3-4-1-18-12-20-20-20-19-13-10-9-4-9-3h-15l-7-1-34-12-30-6-33-9-35-13h-11l-16 5-34 5-9 1-7-1-7-2-39-13-15-3h-12l-9 1-12 2-11 4-8 5-8 9-3 7v9l5 17 13 35 6 15 12 19 1 4v3l-1 1-4 2-37 16-12 7-6 4-5 5-4 5-7 18-3 3-3 1-10 2-6 1-12 6-9 7-13 9-16 14-7 11-4 7-1 7 2 10v2l-1 1-4 2-17 7-7 4-7 6-12 13-31 16-7 5-3 3-3 4 1 5 4 4 8 8 12 6 24 10 12 10 15 11 1 3v10l1 6 4 6 9 8v3l-8 8-4 10-2 2-20 7-32 14-18 12-13 11-7 9-5 7-2 7-2 14-2 3-6 6-2 4-3 9h-1v1l-4 4-17 6-7 5-3 3 3 1 2-2 6-5 17-6 5-4h1l3-11 2-3 6-7 2-3 3-15 2-6 4-7 7-8 12-11 19-11 31-15 20-7h1l2-3 4-10 8-8 1-3-1-2-9-9-3-5-2-5 1-11-2-4-15-11-12-10-25-10-11-6-8-7-3-4-1-3 2-3 3-3 7-5 30-16h1l12-14 6-5 7-4 18-6 4-3 1-3 1-2-2-10v-6l4-7 7-10 16-14 12-9 9-7 12-5 5-2 11-1 4-2 3-4 7-17 4-6 5-4 6-4 11-6 37-16 5-3 1-2 1-5-1-4-12-19-7-15-13-34-4-17v-9l2-6 8-8 8-4 10-4 11-3 10-1 10 1 15 3 39 13 7 2h17l34-5 16-6h5l5 1 35 12 33 9 30 7 34 11 8 2 15-1 8 3 8 4 13 10 20 19 20 20 18 12 1 1h6l10-2 11-1 27-1 33 3 10 2 9 4 6 3 6 5 6 7 5 9 3 7 3 13 11 18 14 39 11 19 7 15 4 12 4 17 1 4 9 10 17 16 5 9 1 1 4 2 11 1 29 1 26-5 14-1 5-1 39-20 22-15 19-15 13-8 13-6 13-3 13-1 13 1 11 3 14 5 5 1 40-1 30 2 12 3 5 3 10 7 5 1 4-4 5-7 5-10 4-12 3-14 4-26 3-17 5-19 5-11 13-25 17-24 7-8 6-5 5-3 5-2h5l7 2 10 8 8 10 2 3 2 8 6 12 9 33 11 23 20 33 11 15 5 9 4 3h4l3-1 8-5 2-2 2-4-1-7-4-10-1-9 2-13v-10l1-4 7-11 15-22 8-7 14-16 9-8 10-7 15-15 18-18 6-7 2-5 5-18 5-36v-4l-7-18-4-32 1-16 3-20 7-23 5-10 2-5 15-18 20-18 5-3 9-4 35-13 39-17 11-6 8-4 7-7 10-14 8-11 41-42 27-24 9-6 11-5 16-6 28-8 76-15 15-5 32-13 53-30 16-7v-3l-17 8zM2874 233l-41 43-21 18-15 26-4 6-18 22-13 13-18 15-31 21-26 14-28 13-7 5-17 26-19 23-13 23-5 8-10 13-10 8-3 3-4 10-7 11v3l5 1 18 2 24 5 7 2 5 3 6 6 8 14 3 9 2 14 4 3 5 1 31 1 15 1 6-1 12-2 15-2 3-1 4-4 11-13 8-6 11-5 17-4 17-2h17l17 2 18 3 3 2 2 3 4 10 2 22v16l1 5 4 2 15 1 5 2v-3l-4-1-15-1-3-2-1-3 1-16-2-23-5-10-3-4-3-2-19-4-17-2h-17l-17 2-18 4-11 5-9 7-11 14-3 3h-2l-15 2-12 3-6 1-15-2h-31l-4-2-2-2-3-12-3-9-8-15-6-7-5-3-8-3-25-5-18-1-2-1v-1l6-10 4-10 3-3 9-7 11-13 6-9 13-23 18-23 17-25 7-4 27-13 26-15 32-21 18-15 13-14 18-21 5-7 14-25 21-18 41-43 6-5 7-4v-2l-8 4z"/>
  <path class="st1" d="m2856 199-7 5-31 33-18 15-32 24-3 4-1 4-1 16-1 7-3 6-10 17-14 16-17 15-20 13-18 9-41 17-7 4-6 6-12 17-20 26-29 35-7 6-13 10-15 9-4 3-18 21-21 20-7 10-5 13-2 14-3 21v1l3 4 5 1 27-1 28-1 24 2 9 2 7 1 5 3 3 2 1 3 1 3-2 5-2 5-10 14-18 17-8 12-2 6-2 9-3 7v2l8 8 5 4 6 1 15 1 11 2 8 5 21 15 4 2 5 1 12-9 5-2 10-2 7-3 46-32 9-6 8-3 8-1h9l9 1 9 4 9 6 12 12 14 18 3 3 18 3 11 4 26 13 12 7 4 5 3 4 11 22 2 3 3 3 6 1h4v-3h-3l-5-1-2-2-2-2-10-23-4-4-5-5-12-8-26-13-12-4-17-3-2-2-15-18-11-12-9-7-10-4-10-1-10-1-9 2-8 3-11 6-45 32-6 3-10 2-6 3-11 8-3-1-3-1-21-16-9-5-11-2-15-1-5-1-5-3-6-7v-1l2-6 2-9 2-5 7-12 19-17 10-14 3-6 1-5v-4l-2-5-4-3-6-3-7-2-10-1-24-2h-28l-27 1h-3l-1-2 2-21 3-14 4-11 7-10 21-20 17-21 4-3 16-8 13-10 7-7 29-35 20-26 12-17 5-5 7-4 41-17 18-9 20-13 18-15 14-17 10-17 3-7 2-7v-17l2-3 2-3 31-23 19-16 30-33 7-4 18-11 13-12v-4l-16 13z"/>
  <path class="st1" d="m2839 242-23 23-25 19-3 6-7 21-7 11-23 28-19 17-11 8-11 7-19 9-45 21-8 5-5 7-25 36-22 28-11 13-16 15-6 5-9 6-4 3-15 19-18 17-2 4v7l1 5 4 3 17-2h22l26 1 15 3 8 4 5 4 15 16 4 10 3 13 2 3 6 2 12-2 7-1 23 2 27 5 83 20 15 5 6 5 6 6 2 4 3 9v1l4 2h5l5-3 13-10 6-3h21l5 2 5 4 2 4 1 3-1 8-4 29v14l2 25 2 10v1l3 4 3 1v-3h-1l-2-3-2-11-2-24v-13l4-30v-12l-3-4-5-5-6-2-6-1-17 1-7 3-13 10-4 2-3 1-2-2-4-9-2-4-6-7-7-5-15-6-83-20-28-5-23-1h-8l-11 2-4-1-2-2-2-13-4-10-16-17-5-4-9-4-15-3-27-1h-22l-17 1-2-1-1-4 1-6 1-3 18-18 15-18 3-3 10-6 6-5 16-16 11-12 22-29 25-36 5-6 7-5 45-21 19-9 12-7 11-8 19-18 23-27 7-12 7-21 3-5 25-20 23-22 22-22 26-15v-3l-28 16zM2 479l8-9 8-7 17-20 19-16 15-23 12-13 6-6 10-6 6-2 8-1 7 2 9 3 9 3 7 4 8 7 9 11 8 10 6 4 40 9 19 5 17 7 22 13 5 2 5-1 6-4 11-10 7-11 10-19 9-10 7-7 4-2 6-1 6 1 15 3 18 6 13 5 18 9 15 8 17 7 9 5 13 10 8 10 6 9 4 10 3 4 11 1 43 2 33 2 48 9 21 7 11 6 8 7 5 6 3 6 2 6 1 5v6l-2 7-4 7-6 9-11 10-2 3 2 5 7 11 3 7 3 11 1 11v15l-2 16-5 16-6 8-10 8-23 13-12 4-19 5-8 1h-9l-24-3-18-2h-5l-1 4 5 23 1 9-3 9-5 5-8 4-17 6-31 8-29 6-6 2-3 2-3 13-5 10-5 6-6 5-12 6-11 5-23 7-18 5-15 11-14 6-2 4 3 4 23 17 11 9 18 9 14 10 8 7h7l32-11 26-5 13-2h5l5 1 6 2 5 4 5 4 8 9 4 8 3 11 3 5 23 21 14 18 4 4 19 11 18 11h5l-21-13-19-11-4-4-14-18-23-20-2-5-4-11-4-8-8-10-5-4-6-4-6-2-6-1h-6l-13 1-25 6-33 11h-3l-1-1-8-6-14-10-18-9-11-9-23-17-2-2 1-2 13-6 15-11 18-4 24-8 10-4 13-7 6-6 5-6 5-10 4-12 1-2 6-2 29-6 31-8 17-5 9-5 6-6 2-10v-9l-6-23 1-1 3-1 18 2 24 4h9l8-1 19-5 14-5 22-12 11-9 6-9 6-16 2-17v-15l-1-12-3-11-4-7-7-11-1-4 2-2 10-10 7-9 4-7 2-8v-7l-1-5-2-6-4-6-5-6-8-8-12-6-21-7-49-10-33-2-43-1-9-2-3-2-3-9-7-11-8-9-13-11-10-5-17-7-15-9-18-8-13-5-18-6-16-4h-13l-5 3-7 7-9 11-10 19-8 10-10 10-5 4h-4l-4-1-22-13-17-7-19-6-40-9-5-3-7-10-10-11-8-7-8-4-9-4-9-3-8-1h-8l-8 3-9 6-7 6-12 13-15 23-19 16-17 21-8 6-8 9-6 4v3l8-5z"/>
  <path class="st1" d="m25 525 32-13 20-9 32-11 15-4 18-2 17-4 16-1 14-1 9 2 5 2 4 4 2 4-1 4-5 10-7 7-8 6-3 3-1 4 3 2h3l17 3 6 1 25-2 16-1 33-6 16-4 56-16 13-2h10l9 2 9 5 11 8 11 9 3 3 34 10 10 4 10 5 9 6 7 5 4 4 5 7 2 5 1 5-2 15 6 12 2 5v5l-2 2-3 3-10 4-34 11-14 7-3 2v3l3 9 1 11 2 5 20 24 6 9 5 11 2 5v10l-2 4-4 3-8 4-10 3-10 2-17 1h-41l-19 2-4 3-6 12-5 7-4 5-6 3-7 3-20 7-22 4-14 10-18 10-9 3-19 7-3 3 1 3 13 24 6 12 3 4 6 4 33 17 11 6 10 7 13 11 16 11 5 4 4 5 10 16 3 1h3l32-4 17-1 16 1 5 2 6 2 7 5 13 10 18 11 9 6 18 17 6 4h4l-8-6-19-16-8-7-18-11-13-10-7-5-7-3-6-1-16-1-17 1-32 3h-4l-10-16-4-5-5-4-16-11-13-11-10-7-11-6-33-17-6-4-2-3-7-12-13-24v-1l2-2 19-6 9-4 17-10 14-10 22-4 20-6 8-3 5-4 5-5 6-8 5-11 3-3 18-2h41l17-1 10-2 11-3 9-4 4-3 2-5 1-4v-7l-2-6-6-11-6-9-20-24-1-4-1-11-3-10v-1l2-1 13-7 34-10 10-5 5-3 1-3 1-7-2-5-6-11 1-16v-5l-3-5-5-7-4-5-7-5-9-6-10-5-11-4-33-11-4-2-11-9-10-8-10-5-10-3h-11l-13 2-56 17-16 3-32 6-16 2-25 1h-6l-17-3-2-1h-1l1-2 2-2 8-6 7-7 6-11 1-6-2-5-5-4-7-3-8-1h-15l-17 2-16 4-19 2-15 3-32 12-20 9-32 13-30 10v3z"/>
  <path class="st1" d="m34 578 24 5 18 6 11 1 35-2 37-1h14l20 2h9l70-11 20-1h14l14 1 22 4 8 3 12 6 7 5 6 5 3 6 3 5 1 7-1 6-6 18 1 4 4 5 22 17 8 9 19 27 2 6-2 4-2 2-5 2-14 3-23 2-40 2-8 1-5 2-16 13-13 8-19 7-19 2-5 2-14 9-10 6-34 13-14 9-3 3 2 7 28 41 13 27 8 11 6 6 31 17 17 12 8 6 9 10 13 10 5 6 3 6 6 16 1 10-3 6-11 13-1 1h3l12-13 3-6-1-12-6-16-4-6-5-7-13-10-9-10-8-6-18-12-30-17-6-5-8-12-13-26-28-41-1-5 2-3 13-7 34-14 11-6 13-9 5-1 19-3 19-7 14-8 15-13 5-2 7-1 40-1 24-3 14-2 6-3 3-2 2-5-2-8-20-28-8-9-22-16-4-5v-3l6-17 1-7-1-8-3-6-4-5-6-6-8-5-11-6-9-3-23-5-13-1h-15l-20 2-70 11h-9l-20-2h-14l-37 1-35 1H76l-17-7-25-5-25-2-15 1v2H9zM173 997l-11-6-22-17-9-11-3-3-6-1h-5l-8 1-6 2-12 4-12 2-6 1-13 8-10 5-21 6 1 2 21-6 8-4h1l14-8 6-2 12-2 12-4 6-2 7-1h5l4 2 3 2 9 11 22 17 12 6 15 6 1 1h5l-5-3zM13 876l9-6 6-3 15-4 15-2 4-2 1-4-2-8v-7l2-7 4-13-2-6-8-13-9-11-12-14-9-14-4-4-2-1-3-1-24 4v3l24-4h2l1 1 3 3 9 14 13 14 8 12 9 12 1 5-4 12-2 8v7l2 8v3l-3 1-15 2-15 4-6 3-9 5-15 4-3 2v3l4-3zM442 998l-6-5-6-2-8-2-11-1-6 1-6 1-4 4-2 3 1 3 2 2 6 3 9 1h16l-24-3-5-3-1-1-1-2 1-2 3-3 5-1h6l11 1 7 1 6 3 5 3 3 5v2h3v-3z"/>
  <path class="st1" d="m449 981-9-5-10-3-11-2h-9l-13 2-20 4-8 3-16 6-5 3-2 3-2 5-1 6 1 3h4l-1-1-1-3 1-4 1-5 2-2 4-2 16-7 8-2 19-5 13-1h9l11 1 9 3 9 5 21 14 12 9h4l-15-11zM-5 806l-1-1v8l1-5zM51 683l9 7 12 5 3 2 2 3 3 8 3 5 3 3 5 4 7 4 7 3 7 2 8 1 19 1 33-2 24-3 16-4 39-11 32-13 11-5 5-3 5-3 4-5 1-4-3-5-4-4-22-15-11-4-15-2-27-1-34 1-35-2h-24l-26 3-25 3-18 4-10 3-6 5-3 4 1 8 4 7zm0-18 6-3 9-4 17-4 25-3 26-3h24l35 3 34-1h27l15 2 10 4 21 14 4 4 2 4v3l-4 4-5 2-5 3-10 6-32 12-39 12-15 3-24 3-33 2-18-1-8-1-7-2-6-2-7-4-5-4-3-3-2-4-3-8-3-4-4-2-12-6-8-6-3-6v-6l1-4z"/>
  <path class="st1" d="m34 740 3 1 7 8 11 18 26 31 21 28 1 6v10l-4 20-1 11-3 3-13 8-10 9v1l-3 8v4l2 5 3 3 5 2 16 4 11 1h1l28-2h6l4 1 2 3 4 9 5 7 6 7 12 10 47 29 9 4 8 1h10l6-3 13-7 7-6 5-6 3-10v-7l-1-7-6-9-12-12-12-9-27-19-6-5-17-29-15-24-25-34-3-6v-4l3-2 13-8 11-9 23-6 17-7 14-5 17-11 24-6 12-5 13-6 14-10 5-3 6-1 45-5 17-3 7-2 3-3v-3l-2-4-2-3-9-10-11-9-24-17-4-4-2-3-1-12-2-7-4-7-5-6-11-7-12-5-10-3-16-2-29 1-44 6-18 2h-12l-24-2h-23l-23 1-36 4-8-1-24-5-18-3-11-1-11 1-9 2-3 1v2l3-1 9-2 11-1 10 1 18 3 24 6 9 1 36-4 23-1 23-1 24 3h12l19-2 43-6 29-1 16 1 9 3 12 5 10 7 5 6 3 6 2 7 2 12 2 3 4 5 24 17 11 9 9 9 2 3 1 4v1l-1 2-6 2-18 2-44 5-7 2-5 3-15 10-12 6-11 4-25 7-18 10-13 6-17 6-23 7-12 9-13 8-4 3v6l4 6 25 35 15 23 17 30 7 5 26 19 12 9 11 11 6 9 2 6-1 7-3 8-4 6-6 6-13 7-6 2-8 1-8-2-8-3-47-29-12-10-6-6-4-7-4-10-4-3-5-1-6-1-28 2-11-1-16-4-4-1-3-3-1-4v-3l3-7 8-9 14-8 3-4 2-12 4-19v-12l-2-6-20-29-27-30-11-18-7-9-5-2h-3l-37 6v2l37-5z"/>
  <path class="st1" d="m51 719 7 9 13 15 5 6 30 26 6 5 6 2h3l3-1 9-4 13-10 13-12 4-2 27-6 19-5 10-3 16-7 32-9 17-7 25-13 30-6 9-3 3-1 2-2 2-4-2-5-5-6-28-22-6-12-6-6-3-3-6-3-7-2-8-2-12-1h-17l-57 5-32-3h-17l-34 2-35 4h-9l-34-2H25l-5 3-5 3-3 4-2 4v6l1 12 2 10 8 21 14 14 16 11zm-35-47-2-10-1-11v-5l2-4 2-4 4-2 5-2 11-1 34 3 9-1 35-4 34-2h16l33 3 57-4h17l12 1 7 1 6 2 6 3 3 2 6 6 5 13 29 21 5 6 2 3-2 3-2 1-2 2-8 2-31 7-25 13-17 6-32 9-16 7-10 4-19 5-27 5-4 3-14 12-12 9-8 5h-6l-5-2-5-4-30-26-6-6-12-14-8-10-15-11-13-13-8-21z"/>
  <path class="st1" d="m15 505 31-25 11-7 14-8 20-8 9-3 9-1 7-1 12 2 5 1 20-4 22-1 14 2 13 2 6 2 6 3 11 7 15 14 6 11 4 3 4 2h3l14-2 13-3 27-12 16-11 30-28 8-4 7-1 13 1 14 3 17 7 12 8 10 10 7 10 5 15 2 11 3 4 5 1 21 3 54 11 9 2 11 4 7 4 8 6 4 5 1 5-1 7-7 26v4l3 4 10 8 20 15 11 10 6 8 6 11 2 10-1 9-4 6-7 6-12 5-8 2-13 2h-16l-12-1-13-4-20-7-6-2-6 1-11 4-5 3-1 4 5 13 2 11 8 18 2 11v5l-1 5-2 3-4 3-5 4-11 4-25 7-22 2h-33l-5 1-3 5-2 10-3 8-5 6-5 4-10 5-13 4-27 8-21 13-36 16-3 2-1 3 5 10 3 3 23 16 27 16 18 13 12 8 7 7 13 15 5 1h7l32-5 17-2h15l5 2 4 2 8 6 11 15 24 17 18 17 30 18h5l-33-20-18-17-24-17-11-15-9-6-4-3-5-1-16-1-18 2-32 5h-5l-4-1-13-14-8-7-12-8-17-13-27-16-23-15-3-3-4-9v-1l2-1 36-16 21-14 27-7 13-5 10-5 6-4 5-7 3-8 3-10 2-4 3-1h33l23-1 25-7 11-5 6-4 4-3 2-4 2-5v-6l-2-12-8-17-2-11-5-13 1-2 3-3 11-4h5l5 1 20 8 14 3 12 1h16l14-1 8-2 12-6 9-6 4-7 1-10-3-10-6-12-6-9-11-10-20-15-10-8-2-2v-4l7-26 1-7-2-6-4-5-8-7-8-4-11-4-10-3-54-10-20-3-4-1-2-3-2-11-5-15-8-11-10-10-13-8-17-7-14-4-14-1-8 1-8 5-31 28-16 11-26 11-12 4-14 2h-3l-3-2-3-3-6-10-15-14-11-8-6-3-7-3-13-2-15-1-22 1-20 3h-5l-12-2h-7l-9 1-10 3-20 9-14 7-11 8-31 25-7 3-13 4v3l14-4zM147 856l-1 4 1 6 2 5 3 3 5 3 12 3h4l2-1 1-2 1-8-2-5-2-5-5-4-6-4-5-1-6 1-4 5zm10-3 4 1 6 3 4 4 2 3 1 6v6l-1 1-1 1h-3l-11-4-4-2-2-2-3-4v-5l1-4 3-3 4-1z"/>
  <path class="st1" d="m13 165 23 9 3 2 5 5 10 10 18 6 12 6 10 1 4 2 7 5 8 7 8 9 3 3 9 3 10 3 16 12 37 23 22 16 9 8 4 3h5l9-4 4-1 15-1 24 3 23 5 17 7 12 5 14 7 26 15 27 11 18 9 23 12 31 10 27 12 33 15 7 3 17 1 17 2 10 2 10 4 6 3 8 7 12 13h1l33 17 21 12 8 6 9 7 9 10 6 7 5 8 3 9 4 18v27l4 28 1 30v77l-2 15-5 17-3 6-5 6-9 5-8 4-15 4-47 7-7 1-3 3-3 13-5 7-6 6-16 9 2 3 10 9 5 7 2 5 3 19-1 8-4 14-4 4-9 7-1 5 10 16 14 13 6 8 4 6 4 16 7 12 1 7-2 6-7 8v5l13 15 10 16h3l-11-17-12-15v-3l7-8 2-7-2-7-6-13-5-16-3-6-7-8-13-13-10-16v-2l9-7 4-5 5-14 1-9-3-20-2-5-5-8-11-9h-1l15-8 6-6 5-8 4-13 2-2 6-1 47-6 15-4 9-5 8-5 6-6 4-7 5-17 2-16v-77l-2-30-3-28v-15l-1-13-3-17-3-10-5-9-6-7-10-10-9-7-9-6-21-12-33-17-12-13-9-7-6-3-11-4-9-3-18-2-16-1-7-2-33-15-26-12-32-10-22-12-18-9-28-11-26-15-13-7-12-6-18-6-23-6-25-3-16 1-4 1-8 4h-4l-3-2-9-8-23-16-36-23-17-13-10-2-8-3-3-3-8-9-8-7-7-5-5-2-10-2-12-5-17-6-10-10-5-5-4-2-23-9-19-6h-1v2l1 1z"/>
  <path class="st1" d="m-1 412 4-4 13-20 2-7 22-25 5-10 1-13 1-5 5-8 5-7 8-6 8-4 10-1 15 2 10 2 6 3 25 15 6 4 7 7 10 10 19 11 15 12 6 5 6 8 3 6 3 11 4 4 2 1h9l5 1 16 4 11 4h4l3-1 15-13 4-8v-5l-1-27 1-4 2-3 4-4 5-2h10l9 2 18 6 22 10 28 10 23 13 21 15 22 7 30 14 11 6 8 5 6 6 10 10 4 2 5 1 32 4 23 4 8 2 15 6 22 5 15 6 17 9 13 10 11 13 11 14 3 9 2 9v7l-3 15 5 13 2 8 2 13 1 14-1 69-2 9-4 6-9 7-12 5-50 12-19 3-19 2h-24l-12-1-3 1-1 1 2 13-1 8-2 5-3 4-7 4-17 7-27 10-37 11-4 4v9l-2 10-8 11-32 20-15 7-13 8-6 5-3 3 2 3 8 8 7 5 6 1 4-2 22-12 15-6 9-2 17-2h9l11 2 19 4 14 5 7 5 6 6 13 13 8 10 5 10 11 11 7 12 3 10 1 8-1 17v4l4 4 29 21 5 5h4l-7-6-29-22-3-4-1-3 1-16v-8l-4-11-7-12-11-12-5-9-8-11-13-13-6-6-8-5-14-6-20-4-11-1h-10l-17 2-9 2-16 6-21 12-4 1-4-1-6-4-7-7-1-2 1-1 5-5 13-7 15-8 33-20 9-13 2-10v-8l3-3 36-11 27-9 17-8 8-4 4-5 2-6v-8l-1-12h2l11 1 24-1 20-1 18-3 51-12 13-6 9-7 4-7 3-10 1-69-1-14-2-13-2-8-5-13 3-15v-7l-2-10-4-9-10-15-12-13-14-10-17-10-15-5-22-5-15-6-9-3-23-4-31-3-5-1-4-2-9-10-7-6-7-5-11-7-31-13-22-8-21-14-23-13-28-10-22-10-18-6-10-2h-11l-5 1-6 5-2 5-1 4 2 27-1 5-3 6-14 13-3 1h-2l-11-4-16-4-6-1h-8l-2-1-2-3-3-11-3-6-7-8-7-6-15-12-18-11-10-10-7-7-6-4-26-16-6-3-10-2-16-2-10 2-10 4-8 6-6 7-4 9-2 5-1 13-4 10-22 25-3 7-12 20-3 2-4 3v2h1zM25 840l4-2 1-3 1-11 3-11-1-4-4-6-14-14-8-12-3-1-5-1-5 1v3l5-1 4 1 2 1 7 10 14 15 4 5v3l-3 10-1 11-1 2-2 1-19 6-10 6v4l12-7zM-6 214v9-6z"/>
  <path class="st1" d="m3 270 3-7 5-5 7-5 10-4 10-2h12l10 1 9 3 8 3 15 9 33 8 14 5 11 6 15 11 15 14 21 12 14 11 9 12 7 17 3 3 5 1 11 3 3-1 3-2 1-8-1-16 1-3 4-13 2-3 3-3 5-2 9-1 10 2 17 4 33 12 11 5 22 12 22 9 12 5 13 8 18 11 6 4 22 7 31 13 22 13 16 11 7 2 22 3 10 2 8 2 15 6 17 9 15 6 17 7 24 14 15 11 6 6 6 7 6 9 3 6 4 16 1 11-1 16 5 23 2 28 1 73-1 16-2 6-3 5-5 5-5 4-9 3-7 3-31 6-35 4-22 4-13 1-4 3 2 7-1 4-3 5-5 4-12 6-14 6-17 3-8 3-3 4v7l-3 12 1 3 3 2 12 5 15 8 11 10 11 15 2 6 1 6-1 5-5 9 1 5 10 11 7 10 12 12 8 13 4 10 2 9v6l-1 6-3 9v6l3 3 11 12 13 17h4l-14-19-11-12-3-2v-4l4-9 1-7v-6l-2-10-5-11-8-12-12-13-7-10-9-11-1-3 4-8 2-6-1-7-3-6-11-16-11-10-16-9-12-5-2-1v-1l3-11v-7l1-2 7-3 17-3 15-6 12-7 6-4 3-6 1-5-1-6 2-1 11-1 22-4 36-4 31-6 8-2 9-4 6-4 5-7 3-5 2-6 2-17-1-73-2-28-6-23 2-16-1-11-4-17-3-7-7-9-7-7-5-6-16-12-24-14-17-7-16-6-16-9-15-6-9-3-11-2-21-2-7-2-14-11-23-13-31-13-22-7-6-4-18-11-13-7-12-6-22-8-23-12-11-6-33-12-17-4-11-2-10 1-6 2-4 3-3 5-4 13-1 4 1 16-1 6-1 1h-1l-10-2-4-1-2-2-7-17-9-12-15-12-20-12-15-13-16-12-11-5-14-6-33-8-15-9-9-3-9-3-11-1H38l-11 2-11 4-7 6-6 5-3 8-6 21v8l2-2zM122 689l15 11 10 6 11 3 13 3h15l13-1 14-2 18-5 8-4 4-2 4-3 4-6 1-6-1-4-3-4-4-4-5-2-12-3-24-3-29-1h-23l-16 3-12 5-6 5-2 4 2 5 5 5zm-2-12 5-4 11-4 15-3 23-1 29 1 23 3 12 3 3 2 4 3 2 4 1 2-1 5-3 5-3 2-4 3-8 3-17 5-14 2-12 1h-15l-11-3-11-3-10-5-15-11-4-5-1-3 1-2z"/>
  <path class="st1" d="m27 555 29-1h8l19 1 15 5 6 2 28-2h24l36 6 12 1 14-1 95-19 19-2h23l8 2 11 3 9 3 7 4 25 17 6 5 8 7 4 7 3 6 1 6v4l-2 4-5 8-11 12-9 9-1 3 1 4 10 10 15 26 16 17 8 11 3 6 1 4v3l-2 2-3 3-6 2-15 3-10 1h-55l-9 1-9 2-6 4-11 14-9 5-11 5-12 4-16 4-21 4-3 2-9 7-5 4-14 6-15 5-6 3-2 3v5l6 15 15 23 8 19 4 7 5 4 45 23 16 11 12 11 14 9 8 8 2 5 5 13 3 4 6 1h7l22-5 13-1 15 1 17 2 8 3 10 5 27 17 12 9 8 7h5l-11-10-12-9-27-17-10-5-9-3-18-3h-15l-14 1-21 5h-7l-4-1-2-2-4-13-3-6-8-8-14-10-13-11-16-10-44-24-5-3-4-6-8-19-14-23-6-15v-3l1-1 4-3 16-5 14-6 6-4 8-8 3-1 20-4 16-4 12-4 12-5 9-6 11-14 6-3 8-2 8-1h55l10-1 16-3 7-3 4-3 2-3 1-4-1-5-4-7-8-11-16-17-15-26-10-10v-4l9-8 11-12 5-9 2-4v-5l-1-7-2-6-5-8-8-8-7-5-25-16-8-5-9-3-12-3-7-2h-24l-20 2-95 18-13 2-12-1-35-6h-25l-28 1-5-1-15-5-20-1-8-1-30 2-22 1-10-1v4l10 1z"/>
</svg>
